<?xml version="1.0" encoding="utf-8"?>
<!-- Generator: Adobe Illustrator 24.0.2, SVG Export Plug-In . SVG Version: 6.00 Build 0)  -->
<svg version="1.1" id="Layer_1" xmlns="http://www.w3.org/2000/svg" xmlns:xlink="http://www.w3.org/1999/xlink" x="0px" y="0px"
	 viewBox="0 0 1080 1080" style="enable-background:new 0 0 1080 1080;" xml:space="preserve">
<style type="text/css">
	.st0{fill:#F8C2CB;}
	.st1{fill:#C9C9CB;}
</style>
<g>
	<g>
		<g>
			<g>
				<path class="st0" d="M405.9,136.1c-0.4,0.7-0.5,1.5-0.3,1.7c0.2,0.2-0.1,0.6-0.7,0.9c-1.9,0.7-2.9,3.8-3.1,8.7
					c-0.1,5.2-0.6,9.2-1.1,10c-0.2,0.3-3.4,0.7-7.1,1c-10.9,0.8-12.4,0.9-18.9,1.6c-8,0.8-22.9,2.9-24.3,3.4c-0.6,0.2-2,0.5-3.1,0.6
					c-1.1,0.1-3.3,0.4-4.8,0.7c-1.5,0.2-3.8,0.5-5.1,0.6c-1.3,0.1-3.3,0.4-4.4,0.6c-1.1,0.2-4.3,0.6-7.1,0.8
					c-2.8,0.2-6.2,0.9-7.5,1.5c-2.1,0.9-6.1,1.7-8.8,1.8c-1.7,0.1-0.5,3.2,1.2,3.2c0.6,0,1.6,1,2.1,2.2c0.6,1.4,1.5,2.2,2.2,2.1
					c0.8-0.1,1.2,0.4,1.2,1.2c0,0.7,0.6,1.7,1.4,2.1c0.8,0.5,1.4,1.2,1.4,1.7c0,0.5,0.2,0.8,0.4,0.8c0.2,0,3.2,0.4,6.7,1
					c9.2,1.4,17,1.9,18,1c0.7-0.5,1.2-0.5,1.9,0.1c0.7,0.6,3.9,0.7,11.5,0.4c5.8-0.2,10.8-0.4,11.2-0.4c0.4,0,2.9,0.2,5.6,0.3
					c2.7,0.2,5.1,0,5.3-0.4c0.2-0.4,0.7-0.5,1-0.3c0.4,0.2,4.9,0.4,10.2,0.4h9.6l-0.3,11.3c-0.2,6.2-0.5,11.6-0.8,12
					c-0.2,0.4-0.9,0.5-1.4,0.3c-1.4-0.5-3,0.3-2.5,1.2c0.3,0.5,0,0.4-0.6-0.1c-0.6-0.5-2.2-0.7-3.7-0.6c-8.5,1-14.9,1.7-19.8,2.1
					c-3.1,0.3-5.5,0.7-5.4,0.9c0.1,0.2-1.3,0.5-3.3,0.6c-2,0.1-4.9,0.3-6.6,0.5c-6.1,0.8-14.5,1-15.9,0.5c-1.1-0.4-2-0.2-3.1,0.7
					c-1,0.8-2.5,1.2-4,1.1c-1.8-0.1-2.7,0.3-3.6,1.4c-1.2,1.4-1.2,2.5-0.9,11.3c0.2,5.3,0.5,10.4,0.6,11.4c0.1,0.9,0.3,2.1,0.3,2.6
					c0,0.5,0.3,0.7,0.7,0.5c0.3-0.2,0.8,0.1,1,0.7c0.2,0.6,0.1,0.9-0.3,0.7c-0.4-0.2-0.7,0.3-0.8,1.1c-0.1,0.8-0.2,2.3-0.3,3.1
					c-0.1,0.8,0.1,1.7,0.4,1.9c0.3,0.2,0.4,1,0.3,1.8c-0.2,0.8-0.1,1.8,0.3,2.2c1.1,1.4,1.5,3.2,0.7,2.7c-0.6-0.4-0.6,0.3-0.3,2.5
					c0.3,1.7,0.6,3.8,0.7,4.7c0.1,0.9,0.4,3.4,0.7,5.5c0.3,2.1,0.5,4.2,0.4,4.6c-0.1,0.5,0.1,0.8,0.4,0.8c0.3,0,0.6,0.5,0.7,1.2
					c0.2,2.9,1.5,5.9,1.5,3.4c0-0.6,0.3-1.3,0.7-1.6c0.4-0.2,0.7-0.2,0.6,0.1c-0.1,0.3-0.1,1,0,1.6c0.1,0.8,0.2,0.9,0.7,0.1
					c0.4-0.7,0.7-0.4,1,0.9c0.3,1.1,0.1,2.2-0.3,2.8c-0.6,0.8-0.6,0.9,0.3,0.5c0.7-0.2,1.1-0.1,1.1,0.4c0,0.5,0.3,0.7,0.6,0.5
					c0.3-0.2,2.3,0.3,4.5,1c2.1,0.8,4.2,1.2,4.5,1c0.3-0.2,4.7-0.5,9.7-0.7c5-0.2,11-0.6,13.3-0.9c2.3-0.3,7.1-0.3,10.6,0
					s8,0.7,9.8,0.8c1.8,0.2,3.5,0.4,3.6,0.6c0.7,0.7-14.1,13.6-19,16.5c-2.9,1.7-7.6,4.9-9.3,6.3c-1,0.8-2.2,1.5-2.6,1.5
					c-0.4,0-1.5,0.6-2.4,1.2c-0.9,0.6-2.3,1.3-3.1,1.4c-0.8,0.1-1.7,0.6-2.1,1c-0.9,1-2.8,2-8.4,3.9c-2.3,0.8-5,2.1-5.9,2.8
					c-0.9,0.7-2.5,1.4-3.7,1.6c-2,0.3-6.8,2.4-9,3.7c-1.5,0.9-3.5,1.7-5.3,1.9c-0.8,0.1-2.2,0.6-3.1,1c-0.9,0.5-2.5,0.9-3.6,1.1
					c-2.1,0.2-5.1,0.6-6,0.8c-0.3,0.1-0.5,0.6-0.5,1.2s-0.4,1.2-0.9,1.4c-1,0.4-1.4,3-0.4,3c0.4,0,0.5,0.8,0.2,1.9
					c-0.2,1-0.4,2.3-0.5,2.7c0,0.5-0.6,0.8-1.4,0.8c-1.1,0-1.3,0.3-0.9,2c0.3,1.5,0.1,2.1-0.7,2.4c-1.1,0.4-1.1,0.5,0,1.3
					c1.6,1.2,1.6,1.6-0.1,2c-1.6,0.4-1.9,2.5-0.5,2.5c0.5,0,1.2,0.5,1.4,1.1c0.4,0.9,1.2,1,5.2,0.7c3.2-0.3,4.8-0.2,4.8,0.3
					c0,0.4,0.3,0.7,0.7,0.7c0.4,0,0.5-0.6,0.3-1.2c-0.3-1.1-0.3-1,0.7,0.1c1,1.2,1.2,1.2,2.4,0.1c0.8-0.7,1.5-0.9,1.7-0.5
					c0.8,1.4,12.1-0.5,12.1-2c0-0.3,0.5-0.7,1-0.7c0.6,0,0.9-0.4,0.6-1.2c-0.3-0.9-0.2-1,0.3-0.3c0.8,1.1,4.2,0.4,4.7-1
					c0.2-0.5,0.6-0.8,1-0.6c0.4,0.2,1.5-0.2,2.6-1c1.1-0.8,2.4-1.4,3.1-1.4c0.7,0,1.3-0.4,1.5-1c0.2-0.6,0.6-0.9,1-0.7
					c0.6,0.3,6-2.2,6.7-3.2c0.2-0.3,0.9-0.6,1.7-0.7c0.8-0.1,1.3-0.6,1.2-1.1c-0.1-0.5,0.1-0.7,0.3-0.6c1.1,0.7,12.6-5.9,12.6-7.2
					c0-0.3,0.3-0.4,0.7-0.2c0.4,0.2,2.8-1.8,5.4-4.5c2.6-2.7,4.6-4.4,4.4-3.8c-0.2,0.6,0.6,0.2,1.7-0.9c1.2-1.1,2.1-2.3,2.1-2.7
					c0-0.4,0.4-0.7,1-0.7c0.5,0,2.2-1.1,3.5-2.4c1.4-1.3,2.8-2.4,3.1-2.4c0.3,0,0.6-0.4,0.6-1c0-0.6,0.5-1,1-1c0.6,0,1.9-1,3-2.2
					c2.2-2.4,2.7-2.3,2.9,0.5c0.1,1.1,0.4,2.4,0.8,2.9c0.4,0.5,0.4,0.8-0.1,0.8c-0.5,0-0.8,3.5-0.8,10.8c0,5.9-0.3,12.8-0.6,15.2
					c-0.3,2.5-0.5,4.9-0.4,5.5c0.1,0.6,0.2,2,0.3,3.1c0,1.2,0.8,2.9,1.8,4c0.9,1,1.7,2.6,1.7,3.5c0,0.9,0.4,1.8,0.8,2
					c0.7,0.3,0.6,0.5-0.2,1.1c-0.7,0.5-0.8,0.7-0.2,0.7c0.5,0,0.8,0.6,0.8,1.3c0,2.4,0.7,3.6,1.7,2.8c0.7-0.6,1-0.4,1.3,0.5
					c0.4,1.2,1.2,1.4,4,0.9c0.3,0,0.5-0.8,0.5-1.6c0-2,1.3-3.9,1.8-2.7c0.2,0.5,1.2,0.8,2.3,0.8c1.4,0,2.2-0.5,2.8-1.7
					c0.4-0.9,1.4-1.9,2.1-2.1c0.7-0.2,1.3-0.7,1.3-1.1c0-0.4,0.7-0.5,1.4-0.2c1.4,0.4,1.4,0.3,1-3.5c-0.3-2.2-0.6-11.6-0.8-20.7
					c-0.2-9.8-0.6-16.9-1-17.1c-0.9-0.6,0-2.7,1.2-2.7c1.1,0,1.2-0.7,0.2-3.2c-0.9-2.3-1.4-7.7-0.7-7.7c0.6,0,10.6,10.3,11.4,11.8
					c1.2,2.2,7.8,9.4,15.7,17.3c6.7,6.7,9.9,9.3,17.1,13.8c9,5.6,19.1,10.9,20.6,10.7c0.5,0,0.8,0.1,0.8,0.4c0,0.7,3.4,2.6,6.8,3.7
					c3.1,1.1,6.2,0.6,8.1-1.2c0.8-0.7,0.7-1-0.2-1.9c-0.9-0.9-0.9-1.1-0.1-1.1c0.9,0,1.9-1.6,2.1-3.3c0-0.5,0.5-1.1,1.1-1.5
					c0.8-0.6,0.9-0.8,0.1-1.3c-1.5-0.9-0.7-3.2,1.1-3c1.8,0.2,1.9-0.4,0.3-1.6c-1.2-0.9-1.2-1,0.1-2c1.6-1.3,2.2-4.8,0.7-4.2
					c-0.6,0.2-0.9,0.1-0.7-0.2c0.2-0.3-0.6-0.8-1.9-1.1c-1.2-0.3-2.4-0.7-2.6-1c-0.2-0.3-0.9-0.7-1.7-0.8c-0.7-0.1-2.3-0.8-3.4-1.6
					c-2.7-1.8-5.2-3.1-6.7-3.3c-0.7-0.1-1.5-0.5-1.7-0.9c-0.6-0.8-3-1.8-4-1.7c-0.4,0.1-1.1-0.5-1.6-1.3c-0.4-0.8-0.9-1.3-1.1-1.1
					c-0.2,0.2-1.3-0.6-2.5-1.6c-1.2-1.1-2.4-1.8-2.6-1.7c-0.3,0.2-1.2-0.5-2-1.4c-0.9-0.9-1.8-1.5-2-1.4c-0.7,0.4-4.9-2.8-4.3-3.3
					c0.3-0.3,0.2-0.4-0.2-0.3c-1,0.3-6.6-3.2-8.6-5.3c-0.9-0.9-2.1-1.7-2.8-1.7c-0.7,0-1.5-0.6-2-1.4c-0.4-0.8-1.2-1.4-1.7-1.4
					c-0.5,0-1-0.3-1-0.7c0-0.4-0.3-0.5-0.6-0.3c-0.4,0.2-1.4-0.2-2.3-1c-1-0.8-2-1.4-2.4-1.4c-0.4,0-0.8-0.6-1-1.4
					c-0.2-0.8-0.9-1.4-1.6-1.4c-0.7,0-2-0.9-2.9-2.1c-0.9-1.1-1.9-1.9-2.1-1.7c-0.3,0.2-1.5-0.6-2.6-1.7c-1.2-1.1-2.4-2.1-2.9-2.1
					c-0.4,0-0.5-0.3-0.3-0.6c0.2-0.4-0.2-0.9-0.9-1.4c-1.9-1-1.8-2.1,0.3-2.1c0.9,0,1.7-0.3,1.7-0.7c0-0.4,0.3-0.7,0.7-0.7
					c0.4,0,0.5,0.3,0.3,0.7c-0.2,0.4,1.5,0.6,4.1,0.6c2.7,0,4.5-0.3,4.5-0.8c0-0.5,0.3-0.4,0.8,0.1c1.1,1.1,5.1,1,5.5-0.1
					c0.3-0.7,0.5-0.7,0.9-0.1c0.3,0.4,2.4,0.8,4.9,0.8c3.1,0,4.1-0.2,3.6-0.7c-1.2-1.2-0.9-1.6,0.8-1.5c1,0.1,1.5,0.6,1.5,1.3
					c-0.1,0.7,0.4,1.1,1.3,1.1c1.1,0,1.2-0.2,0.6-0.8c-0.5-0.5-0.8-1.1-0.8-1.5c0-0.4,0.2-0.5,0.4-0.2c0.2,0.3,0.8,0.1,1.4-0.3
					c0.7-0.6,0.9-0.4,0.9,1c0,1.5,0.2,1.7,1.5,1.3c0.8-0.2,1.1-0.5,0.7-0.7c-0.5-0.1-0.7-0.6-0.4-0.9c0.6-0.9,1.7-0.7,1.7,0.3
					c0,0.7,1.8,0.9,8.7,0.7c4.8-0.1,9.2-0.6,9.9-0.9c0.7-0.4,1.4-0.4,1.6,0c0.2,0.4,1.2,0.4,2.6-0.1c1.2-0.4,3-0.7,4.1-0.6
					c1,0.1,1.9-0.2,1.9-0.5c0-0.3,0.7-0.6,1.5-0.5c1.1,0,1.6-0.5,2.1-2c0.3-1.1,0.4-2.4,0.3-2.9c-0.2-0.5,0.1-0.9,0.7-0.9
					c1.2,0,1.4-1.8,0.2-2.5c-0.5-0.3-0.6-0.1-0.3,0.8c0.4,0.9,0.3,1.1-0.2,0.6c-0.4-0.4-0.5-1.2-0.3-1.8c0.5-1.3,2.2-2.1,2.2-1
					c-0.1,2.8,0.2,3.2,2.6,3.1c1.4-0.1,2.2-0.4,1.9-0.8c-0.2-0.4,0.1-0.5,0.7-0.3c0.7,0.3,1.4,0,1.8-0.8c0.9-1.7,0.1-25.3-1-28.2
					c-0.2-0.6-0.1-1.3,0.3-1.6c0.5-0.3,0.5-0.9,0.2-1.6c-0.7-1.4,0-4.6,1.1-4.6c0.5,0,0.8-0.3,0.8-0.7c0-0.4-0.5-0.6-0.9-0.5
					c-0.7,0.2-0.7-0.5,0.1-2.9c0.7-2.1,1.3-3,1.9-2.8c0.5,0.2,1,0.1,1.2-0.2c0.5-0.8-0.8-9.3-1.5-9.6c-0.3-0.1-0.5-1-0.3-1.9
					c0.2-1,0-1.7-0.5-1.7c-0.5,0-0.6-0.3-0.3-0.7c1.1-1.7-2.7-6.9-4.8-6.5c-0.4,0.1-0.8-0.6-0.9-1.4c-0.1-0.9-1-1.7-2.1-2.1
					c-1.4-0.5-2.1-1.3-2.4-2.9c-0.5-2-0.6-2.1-2.6-1.8c-1.2,0.2-12.6,0.5-25.4,0.7c-23.4,0.3-25.3,0.4-26.8,1.3
					c-0.5,0.3-0.8,0.2-0.8-0.1c0-0.4-2.6-0.6-6.1-0.6c-4,0-6,0.3-5.7,0.8c0.2,0.4,0,0.3-0.6-0.1c-0.9-0.7-1.5-0.6-3,0.2
					c-2.2,1.2-4,1.4-2.3,0.4c0.6-0.4,0.7-0.7,0.4-0.7c-0.4,0-1.1,0.3-1.7,0.6c-0.7,0.4-1.3,0.4-1.9-0.1c-0.5-0.4-2.3-0.6-4.2-0.4
					c-3.2,0.3-3.3,0.3-2.6-1c0.6-1,0.6-1.4-0.1-1.7c-0.5-0.2-0.6-0.7-0.4-1.1c0.3-0.4,0.6-4.2,0.7-8.3c0.1-4.2,0.4-8,0.6-8.5
					c0.2-0.6,1-0.8,2.4-0.6c1.1,0.2,2.2,0,2.4-0.3c0.2-0.4,0.6-0.5,0.9-0.3c0.6,0.4,12.4,1,23.8,1.4c4.2,0.1,7.9,0.4,8.2,0.6
					c0.3,0.2,2.1,0.3,4,0.2c1.9-0.1,3.8,0.1,4.3,0.5c0.6,0.4,1.2,0.4,1.9-0.2c0.6-0.5,1-0.6,1-0.2c0,0.4,2,0.6,4.5,0.5
					c2.8-0.1,5.4,0.2,6.8,0.8c1.3,0.5,2.3,0.7,2.3,0.3c0-0.7,7.6-0.4,8.9,0.4c0.5,0.3,2.8,0.6,5,0.6c2.3,0.1,4.5,0.3,4.9,0.5
					c0.4,0.2,1.4,0.3,2.4,0.2c1-0.1,2-0.2,2.3-0.3c0.3,0,0.4-0.5,0.2-1c-0.2-0.5,0.1-1.5,0.7-2.1c0.6-0.6,0.9-1.5,0.7-2.1
					c-0.2-0.5-0.1-1.2,0.3-1.4c0.5-0.3,0.2-1-0.6-1.9c-1.9-2-2.7-4.6-1.4-4.6c1,0,4-3.5,4-4.8c0-0.4-0.4-0.7-0.7-0.7
					c-0.4,0-0.6,0.6-0.3,1.2c0.4,1.1,0.3,1.1-0.6-0.1c-1.3-1.6-0.2-3.7,2.3-4.3c2.9-0.6,3.4-0.9,3.4-1.6c0-0.4-0.9-0.7-2.1-0.7
					c-1.1,0-2.1-0.3-2.1-0.7c0-0.4,0.3-0.7,0.7-0.7c0.4,0,1.3-0.5,2.1-1.3c1.3-1.2,1.3-1.3-0.4-1.6c-1.1-0.2-1.6-0.1-1.3,0.4
					c0.3,0.5,0.2,0.5-0.3,0.1c-0.4-0.4-0.8-1.4-0.9-2.4c-0.2-1.6-0.5-1.7-5-1.8c-2.6-0.1-10.2-0.3-16.8-0.5
					c-13-0.5-18.4-0.5-19.3,0.1c-0.3,0.2-0.5-0.1-0.5-0.5c0-0.6-0.2-0.6-0.8-0.1c-0.5,0.5-1.5,0.5-2.6,0.2c-1.9-0.5-6.6-0.4-7.6,0.3
					c-0.3,0.2-0.8,0-1-0.4c-0.3-0.5-1.6-0.6-3.7-0.3c-1.8,0.2-3.4,0.2-3.7,0c-0.7-0.7-5.2-0.7-5.2,0c0,0.3-0.4,0.3-0.8-0.1
					c-1-0.8-20.3-0.7-21.6,0.1c-1.3,0.8-1.7-1-1.5-7.7c0.1-6.4,0.1-6.7-1.6-7.8c-1.1-0.7-1.7-0.9-1.7-0.4c0,0.5-0.5,0.4-1.2-0.3
					c-1.4-1.2-3.9-2.1-6.3-2.3c-3.4-0.2-3.6-0.3-3.2-0.7c0.5-0.6-1.7-3-2.7-3C406.9,134.9,406.3,135.4,405.9,136.1L405.9,136.1z
					 M457.4,176.6c0.2,0.4,0.1,0.7-0.3,0.7c-0.4,0-0.7-0.3-0.7-0.7c0-0.4,0.1-0.7,0.3-0.7S457.2,176.2,457.4,176.6L457.4,176.6z
					 M355.5,179.1c-0.4,1-1.7,0.9-2.1-0.2c-0.1-0.3,0.4-0.7,1.1-0.7C355.4,178.1,355.7,178.4,355.5,179.1L355.5,179.1z M362.1,178.2
					c0,0.2-0.5,0.5-1,0.7c-0.6,0.2-1,0.1-1-0.3s0.5-0.7,1-0.7C361.7,177.9,362.1,178,362.1,178.2L362.1,178.2z M495.5,180.1
					c-0.5,0.5-0.6,0.3-0.3-0.9c0.2-0.9,0.6-1.2,0.7-0.7C496,179,495.8,179.8,495.5,180.1L495.5,180.1z M493,179.9
					c0.2,0.4,0,0.5-0.7,0.3c-1.2-0.4-1.4-0.9-0.4-0.9C492.3,179.3,492.7,179.6,493,179.9L493,179.9z M505.4,180.4
					c-0.2,0.2-0.8,0.3-1.3,0.1c-0.5-0.2-0.4-0.4,0.4-0.4C505.2,180,505.6,180.2,505.4,180.4L505.4,180.4z M515.3,216.6
					c-0.3,1.4-0.5,1.6-1.3,0.9c-0.9-0.7-0.9-0.9,0.2-1.7C515.7,214.6,515.7,214.6,515.3,216.6L515.3,216.6z M486.3,226.8
					c0.6,0.2,1.3,0,1.7-0.5c0.5-0.7,0.7-0.7,0.9,0c0.2,0.5,1.5,0.8,3.2,0.8h2.9l0.2,3.4c0.2,3.7-0.5,4.3-4.4,3.4
					c-3.5-0.8-33.1-0.6-33.1,0.1c0,0.4-2.1,0.5-5.9,0.2c-3.9-0.3-6.2-0.2-6.8,0.4c-0.7,0.5-1.1,0.6-1.4,0.1c-0.5-0.8-4.4-1-4.4-0.2
					c0,0.3-2.1,0.6-4.6,0.6c-2.5,0.1-5.9,0.2-7.5,0.3c-3.3,0.2-4.4-0.8-3.6-3.1c0.4-1,0.2-1.7-0.5-2.1c-0.8-0.6-0.9-1-0.2-2.2
					l0.8-1.5l27.7,0.1c15.2,0.1,27.8,0,28-0.2C479.7,226,485,226.2,486.3,226.8L486.3,226.8z M394.9,227.8c0,0.4,1,0.7,2.2,0.6
					c3.8-0.2,3.9-0.1,3.9,3.8c0,4.3-0.1,4.3-9.2,4.4c-7.2,0.1-11.3,0.7-11.3,1.7c0,0.5-0.3,0.4-0.7-0.2c-0.4-0.6-0.7-0.7-0.7-0.3
					c0,0.4-1.8,0.7-3.9,0.8c-17.2,0.6-25.4,0.4-25.4-0.6c0-0.3,0.5-0.6,1.1-0.6c0.9,0,1-0.6,0.6-4.1l-0.5-4.1l5-0.1
					c10-0.2,18.1-0.6,19.5-0.9c0.8-0.2,1.7-0.1,1.9,0.3c0.2,0.4,1.1,0.4,1.9,0.2c0.8-0.3,4.3-0.5,7.8-0.5s6.3-0.2,6.3-0.5
					c0-0.3,0.3-0.6,0.7-0.6C394.6,227.1,394.9,227.4,394.9,227.8L394.9,227.8z M514.5,233.2c0,2-1.1,2.3-1.2,0.4
					c-0.1-0.9,0.2-1.7,0.5-1.7C514.2,231.9,514.5,232.5,514.5,233.2L514.5,233.2z M349.3,237.1c-0.2,0.5-0.7,0.8-1.1,0.6
					c-0.4-0.3-0.4-0.6,0.2-1C349.7,235.9,349.8,235.9,349.3,237.1L349.3,237.1z M458.8,237.5c-1.8,1-4.3,1.1-4.2,0.2
					c0-0.4,1.3-0.8,2.7-0.8C459.5,236.9,459.8,237,458.8,237.5L458.8,237.5z M470.4,238.6c-0.5,0.5-2.4-0.5-2.4-1.2
					c0-0.5,0.5-0.4,1.3,0.1C470,238,470.5,238.5,470.4,238.6L470.4,238.6z M475.5,237c0,0.2-0.3,0.5-0.7,0.7
					c-0.4,0.2-0.7,0.1-0.7-0.3c0-0.4,0.3-0.7,0.7-0.7C475.3,236.7,475.5,236.8,475.5,237L475.5,237z M447.3,237.8
					c-0.2,0.2-0.8,0.3-1.3,0.1c-0.5-0.2-0.4-0.4,0.4-0.4C447.1,237.4,447.6,237.6,447.3,237.8L447.3,237.8z M453.3,238.1
					c0.2,0.4,0,0.5-0.7,0.3c-1.2-0.4-1.4-0.9-0.4-0.9C452.6,237.4,453.1,237.7,453.3,238.1L453.3,238.1z M485.8,238.1
					c0,0.4-0.6,0.7-1.4,0.7c-0.8,0-1.4-0.3-1.4-0.7c0-0.4,0.6-0.7,1.4-0.7C485.2,237.4,485.8,237.7,485.8,238.1L485.8,238.1z
					 M434.5,238.7c0,0.4-0.4,0.7-1,0.7c-0.6,0-1.2-0.3-1.4-0.7c-0.2-0.4,0.2-0.7,1-0.7C433.9,238,434.5,238.3,434.5,238.7
					L434.5,238.7z M512.5,245.8c-0.7,0.7-0.8,0.6-0.4-0.4c0.2-0.7,0.6-1.1,0.8-0.8C513.2,244.7,513,245.3,512.5,245.8L512.5,245.8z
					 M484.7,252.5c-0.4,0.7-1.7,0.1-1.7-0.8c0-0.3,0.4-0.4,1-0.2C484.6,251.7,484.9,252.1,484.7,252.5L484.7,252.5z M453,252.6
					c0.7,0.7,0.8,0.7,0.4,0c-0.7-1.2,2.4-1.1,4.2,0.2c0.8,0.6,1.5,0.7,1.7,0.3c0.1-0.4,2.1-0.8,4.3-0.9c3.3-0.2,4.3,0.1,5.2,1.1
					c1.5,1.8,7.3,2.2,8.6,0.6c0.5-0.7,0.9-0.8,0.9-0.3c0,0.6,2.1,0.8,7.8,0.7l7.8-0.2l-0.2,1.7c-0.1,1-0.2,2.5-0.3,3.4
					c-0.1,1.6-0.3,1.7-3.5,1.7c-1.9,0-3.6,0.2-3.8,0.5c-0.4,0.6-3.7,0-4.8-0.8c-0.9-0.8-4.5-0.1-5.2,0.9c-0.3,0.4-1,0.3-1.8-0.2
					c-1.1-0.7-2.1-0.7-4.6,0c-2.5,0.6-3.4,0.6-4.2,0c-0.7-0.6-0.9-0.6-0.9,0c0,0.6-0.4,0.6-1.4,0.1c-2-1-4.4-0.9-4,0.2
					c0.3,0.8-0.1,0.9-2.4,0.4c-3-0.7-4.8-0.6-5.4,0.4c-0.3,0.4-0.9,0.3-1.5-0.2c-0.8-0.7-1.4-0.7-2.6,0c-0.9,0.5-3.9,0.9-6.7,0.9
					c-2.9,0.1-5.5,0.3-5.9,0.6c-0.4,0.3-1.3,0.3-2,0c-0.8-0.3-1-0.2-0.7,0.3c0.3,0.5-0.1,0.5-1.2-0.1c-2-1-6.1-0.7-5.5,0.5
					c0.3,0.5,0.2,0.6-0.2,0.1c-0.4-0.4-0.5-2.4-0.4-4.5l0.3-3.8l10-0.4c9.1-0.4,10.1-0.5,11.2-1.8c1.2-1.4,1.2-1.4,1.6-0.1
					c0.3,0.8,0.7,1.2,1.1,1c0.4-0.3,0.4-0.7-0.1-1.3c-0.6-0.7-0.5-1,0.5-1.2C451.5,251.7,452,251.7,453,252.6L453,252.6z
					 M509.3,257.4c0.3,2.6,0.2,3.8-0.2,3.5c-0.4-0.2-0.7-2.2-0.7-4.3C508.3,251.9,508.7,252.2,509.3,257.4L509.3,257.4z
					 M396.9,255.9c0,0.4-0.3,0.7-0.7,0.7c-0.4,0-0.7-0.5-0.7-1.1c0-0.6,0.3-0.9,0.7-0.7C396.6,255,396.9,255.5,396.9,255.9
					L396.9,255.9z M402.6,259.8c0.2,1.4,0.4,3.4,0.4,4.4c0,2.2-1.1,2.5-8.8,2.4c-3.1,0-5.2,0.2-5,0.5c0.2,0.3-0.4,0.4-1.4,0.2
					c-1-0.2-2-0.2-2.2,0.2c-0.4,0.7-2.7,0.5-4.7-0.3c-0.8-0.3-1.5-0.2-1.8,0.2c-0.6,1-4.9,1.2-8.7,0.5c-2-0.4-2.9-0.3-2.9,0.2
					c0,0.4-0.5,0.7-1,0.7c-0.6,0-1-0.3-1-0.7c0-0.6-1.6-0.5-4.2,0.3c-0.8,0.2-1.3,0.1-1.3-0.3c0-0.4-0.4-0.5-0.8-0.3
					c-0.5,0.3-0.6,0.2-0.4,0c0.3-0.3,0-2-0.5-3.7c-1.9-6.3-2.7-5.9,12.2-6c22.3-0.1,29.1-0.3,29.5-1
					C400.8,255.9,402.2,257.4,402.6,259.8L402.6,259.8z M513.3,257c-0.4,0.2-1.3,0.2-1.7,0c-0.5-0.2-0.1-0.3,0.8-0.3
					C513.4,256.6,513.8,256.8,513.3,257L513.3,257z M512.4,258.2c0,0.2-0.3,0.5-0.7,0.7c-0.4,0.2-0.7,0.1-0.7-0.3
					c0-0.4,0.3-0.7,0.7-0.7C512.2,257.9,512.4,258,512.4,258.2L512.4,258.2z M353.9,260.3c0,0.6-0.3,1-0.7,1c-0.4,0-0.5-0.4-0.3-1
					c0.2-0.6,0.5-1,0.7-1C353.8,259.2,353.9,259.7,353.9,260.3L353.9,260.3z M513.7,261.9c0.7,1.4,0.7,6.2,0,6.2c-0.4,0-2-3.1-2-3.8
					c0-0.2,0.5-0.3,1-0.3c0.6,0,1-0.3,1-0.7c0-0.4-0.4-0.6-0.8-0.5c-0.5,0.1-1-0.3-1.1-1C511.5,260.2,512.9,260.3,513.7,261.9
					L513.7,261.9z M351.4,262.4c0.6,1.6,0.1,1.8-0.8,0.3c-0.5-0.8-0.6-1.4-0.2-1.4C350.7,261.3,351.2,261.8,351.4,262.4L351.4,262.4
					z M355.1,263.8c-0.2,0.2-0.8,0.3-1.3,0.1c-0.5-0.2-0.4-0.4,0.4-0.4C354.9,263.4,355.3,263.5,355.1,263.8L355.1,263.8z
					 M509.5,266c-0.1,0.7-0.3,1.2-0.6,1c-0.8-0.5-0.7-2.3,0.1-2.3C509.3,264.7,509.5,265.3,509.5,266L509.5,266z M352.5,266
					c0,0.4-0.1,0.7-0.3,0.7c-0.2,0-0.5-0.3-0.7-0.7c-0.2-0.4-0.1-0.7,0.3-0.7C352.2,265.4,352.5,265.7,352.5,266L352.5,266z
					 M356.1,266.9c-0.5,0.5-0.8,0.6-0.8,0.1c0-0.9,0.8-1.7,1.2-1.2C356.7,265.9,356.5,266.4,356.1,266.9L356.1,266.9z M478.7,267.2
					c0.4,1.1-7.1,0.7-8.2-0.4c-0.7-0.7-0.5-0.8,1-0.6c1,0.2,1.9,0.2,1.9-0.1C473.5,265.4,478.5,266.4,478.7,267.2L478.7,267.2z
					 M469.4,267.1c0,0.6-0.3,1-0.7,1c-0.8,0-1.5-1.1-0.9-1.6C468.6,265.7,469.4,266,469.4,267.1L469.4,267.1z M484.6,267
					c-0.2,0.3,0.3,0.4,1.2,0.2c1.2-0.3,1.4-0.3,0.6,0.2c-0.6,0.4-1.7,0.6-2.4,0.5c-0.7-0.1-2.1-0.3-2.9-0.3
					c-2.7-0.1-1.6-1.1,1.2-1.1C483.8,266.4,484.8,266.6,484.6,267L484.6,267z M458,268.2c-0.7,0.3-1.8,0.5-2.3,0.5
					c-0.8,0-0.7-0.2,0.2-0.9c0.7-0.5,1.7-0.8,2.3-0.5C459.2,267.6,459.1,267.8,458,268.2L458,268.2z M463.5,267.4
					c0.2,0.4,0,0.7-0.6,0.7c-0.6,0-1-0.3-1-0.7c0-0.4,0.3-0.7,0.6-0.7C462.9,266.7,463.3,267,463.5,267.4L463.5,267.4z M466.3,267.4
					c0.2,0.4,0,0.7-0.6,0.7s-1-0.3-1-0.7c0-0.4,0.3-0.7,0.6-0.7C465.6,266.7,466,267,466.3,267.4L466.3,267.4z M446.4,268.4
					c-0.2,0.6-0.9,0.8-1.8,0.6c-1-0.3-1.2-0.5-0.5-0.9C445.6,267.1,446.8,267.3,446.4,268.4L446.4,268.4z M450.2,268.1
					c0,0.6-1.6,1.4-2.8,1.4c-0.3,0-0.4-0.4-0.2-0.9C447.6,267.6,450.2,267.2,450.2,268.1L450.2,268.1z M442.7,268.8
					c0,0.4-0.7,0.7-1.7,0.7c-1,0-1.7-0.3-1.7-0.7s0.7-0.7,1.7-0.7C442,268.1,442.7,268.4,442.7,268.8L442.7,268.8z M427.4,269.5
					c0.2,0.4-0.1,0.7-0.7,0.7c-0.6,0-1.1-0.3-1.1-0.7c0-0.4,0.3-0.7,0.7-0.7C426.7,268.8,427.1,269.1,427.4,269.5L427.4,269.5z
					 M434.1,269.5c-0.4,0.7-3,0.8-3,0.1c0-0.3,0.8-0.6,1.7-0.6C433.7,269,434.3,269.2,434.1,269.5L434.1,269.5z M436.2,269.5
					c0.2,0.4,0.1,0.7-0.3,0.7s-0.7-0.3-0.7-0.7c0-0.4,0.1-0.7,0.3-0.7C435.7,268.8,436,269.1,436.2,269.5L436.2,269.5z M430.2,269.9
					c-0.2,0.2-0.8,0.3-1.3,0.1c-0.5-0.2-0.4-0.4,0.4-0.4C430.1,269.5,430.5,269.7,430.2,269.9L430.2,269.9z M402.2,271.3
					c-0.7,0.7-4,0.9-3.5,0.2c0.2-0.4,1.2-0.7,2.2-0.7C401.8,270.8,402.4,271,402.2,271.3L402.2,271.3z M386.3,272.3
					c-0.2,0.4-1.7,0.7-3.3,0.7c-1.5,0-4.2,0.1-5.7,0.3s-2.9,0.1-2.9-0.2c0-0.3,1.1-0.6,2.5-0.7c1.4-0.1,2.7-0.3,2.8-0.5
					C380.4,271.2,386.8,271.5,386.3,272.3L386.3,272.3z M514.2,275.4c-0.6,1.6-1.7-0.2-1.2-2c0.3-1.2,0.4-1.3,1-0.2
					C514.3,273.9,514.4,274.8,514.2,275.4L514.2,275.4z M335.8,276.2c-0.7,0.7-1.3-0.5-0.7-1.7c0.5-1.2,0.5-1.2,0.8,0
					C336.1,275.2,336,275.9,335.8,276.2L335.8,276.2z M448.2,287.3c0,0.4-0.3,0.7-0.7,0.7c-0.4,0-0.7-0.3-0.7-0.7
					c0-0.4,0.3-0.7,0.7-0.7C447.9,286.6,448.2,286.9,448.2,287.3L448.2,287.3z M460.5,287.3c0,0.4-0.3,0.7-0.7,0.7
					c-0.4,0-0.7-0.3-0.7-0.7c0-0.4,0.3-0.7,0.7-0.7C460.2,286.6,460.5,286.9,460.5,287.3L460.5,287.3z M345.9,328.1
					c0.2,0.3-0.4,0.5-1.2,0.5c-0.8,0-1.4-0.2-1.3-0.5c0.2-0.3,0.7-0.5,1.2-0.5C345.2,327.6,345.7,327.8,345.9,328.1L345.9,328.1z
					 M335,332.7c0.2,0.6,0.1,1.2-0.3,1.4c-0.4,0.2-0.7-0.3-0.7-1C334.1,331.4,334.4,331.3,335,332.7L335,332.7z M331.8,333.9
					c-0.2,0.5-0.4,0.4-0.4-0.4c0-0.7,0.1-1.1,0.4-0.9C332,332.8,332,333.4,331.8,333.9L331.8,333.9z M326.6,335.8
					c0,0.8-1.9,1.7-2.5,1.1c-0.6-0.6,0.5-1.8,1.6-1.8C326.1,335.1,326.6,335.4,326.6,335.8L326.6,335.8z M319.4,337.8
					c0.2,0.4,0.1,0.7-0.3,0.7s-0.7-0.3-0.7-0.7c0-0.4,0.1-0.7,0.3-0.7S319.1,337.4,319.4,337.8L319.4,337.8z"/>
				<path class="st0" d="M334.8,282.7c0,0.5,0.6,0.8,1.4,0.8c0.8,0,1.4-0.2,1.4-0.5c0-0.3-0.6-0.6-1.4-0.8
					C335.4,282,334.8,282.3,334.8,282.7L334.8,282.7z"/>
				<path class="st0" d="M516.1,344c-0.2,0.4-0.3,0.9-0.1,1c0.2,0.2,0.5-0.1,0.7-0.7C517.2,343.1,516.8,342.9,516.1,344L516.1,344z"
					/>
				<path class="st0" d="M462.7,253.8c0,0.9,0.2,1.3,0.3,0.8c0.2-0.5,0.2-1.2,0-1.7C462.8,252.5,462.7,252.9,462.7,253.8
					L462.7,253.8z"/>
			</g>
			<g>
				<path class="st0" d="M653.3,121.7c-1,0.2-1.4,0.6-1.2,1.2c0.2,0.5,0,1.2-0.4,1.4c-0.5,0.3-0.6,0.2-0.3-0.2
					c0.7-1.1-1.5-1.5-4.6-1c-1.9,0.3-2.9,0.9-3.1,1.8c-0.4,1.4-2.1,1.8-2.9,0.7c-0.3-0.4-0.4-0.1-0.1,0.8l0.4,1.5l-3.9-1.8
					c-2.9-1.3-4.2-1.6-5-1.1c-1.9,1.3-1.2,4.6,1.9,8.5c1.6,2,2.6,3.9,2.3,4.3c-1.3,2-0.5,7,1.8,11.3c1.2,2.3,2.1,4.4,2,4.6
					c-0.5,0.5-3,0.9-8.7,1.3c-2.8,0.2-5.6,0.6-6.2,0.8c-0.6,0.2-2.7,0.5-4.8,0.6c-2.1,0.1-5.3,0.6-7.2,0.9c-1.9,0.4-5.2,0.9-7.5,1.1
					c-2.3,0.2-5.8,0.8-7.9,1.3c-2.1,0.5-5.1,1.1-6.7,1.4c-1.6,0.2-2.8,0.7-2.6,0.9c0.1,0.3-1.1,0.5-2.8,0.5c-1.7,0-3.2,0.3-3.5,0.8
					c-0.3,0.4-1,0.7-1.7,0.6c-0.7-0.1-1.3,0.1-1.5,0.4c-0.2,0.3-1,0.4-1.7,0.2c-0.7-0.2-2.3,0.2-3.5,0.7s-2.8,1.1-3.4,1.1
					c-0.7,0-1.3,0.3-1.3,0.6c0,0.3-0.8,0.9-1.7,1.4c-1.3,0.6-1.7,0.6-1.7-0.1c0-0.5-0.4-0.5-1.1,0.3c-0.9,0.9-0.9,1.4-0.4,2.4
					c0.7,1.2,0.7,1.2,0.7,0.1c0-0.7,0.3-1.2,0.7-1.2c0.4,0,0.7,0.5,0.7,1.1c0,0.6,0.3,0.9,0.7,0.7c0.5-0.3,0.4,0.2,0,1.4
					c-0.4,1-0.5,2-0.3,2.2c0.2,0.2,0.4,0.1,0.4-0.2c0-0.3,0.4-0.2,1,0.3c0.7,0.6,0.8,1.1,0.3,1.8c-0.5,0.6-0.5,1,0,1.3
					c0.5,0.3,0.5,0.9-0.1,1.9c-0.5,0.8-0.9,2.3-1,3.4c-0.3,3.4,2.4,4,16.9,3.5c6.8-0.2,12.6-0.5,12.9-0.7c0.2-0.2,7.4-0.5,15.7-0.7
					c8.4-0.2,18.4-0.6,22.1-0.7c3.8-0.2,32.4-0.5,63.6-0.6c39-0.2,57.3-0.5,58.6-1c1-0.4,2.7-0.7,3.7-0.7c1.6,0,1.7-0.2,1.3-1.8
					c-0.3-1.2-0.2-1.6,0.3-1.3c0.4,0.2,0.7,0.1,0.7-0.2c0-0.8-2.3-2.9-3.3-2.9c-1.2,0-0.8-1.9,0.5-2.2c1-0.3,0.9-0.4-0.4-0.8
					c-1.2-0.4-1.4-0.7-0.9-1.7c0.5-0.9,0.4-1.3-0.4-1.6c-1.6-0.6-1.8-0.5-1.2,0.5c0.3,0.5-0.5,0.1-1.6-0.9c-1.2-0.9-2.2-2.1-2.2-2.5
					c0-0.4-0.5-0.7-1-0.5c-0.5,0.2-1.1-0.1-1.3-0.7c-0.2-0.6,0.1-1.2,1-1.5c1.5-0.5,1.6-1.1,0.5-2.2c-1.1-1.1-0.5-1.5,2.5-1.9
					c3.4-0.4,3.9-0.8,2.8-2.4c-0.5-0.9-1.6-1.3-3.1-1.3c-1.6,0-2.1,0.2-1.8,0.8c0.3,0.6,0.1,0.5-0.7-0.1c-1.2-1-1.6-1.8-0.5-1.1
					c0.4,0.2,0.7,0,0.7-0.5c0-1.1-5.7-2.9-7.6-2.3c-1,0.3-1.5,0-1.8-0.9c-0.4-1.3-1.3-1.7-3.8-1.5c-0.7,0.1-1.1-0.2-0.8-0.6
					c0.3-0.5-0.2-0.6-1.4-0.2c-1.2,0.3-1.7,0.2-1.4-0.2c0.6-0.9-5.7-1.9-6.6-1c-0.4,0.4-1.6,0.4-3.1,0.1c-1.4-0.3-2.8-0.4-3.1-0.1
					c-0.6,0.4-4.2,0.6-26.4,1.3c-6.4,0.2-11.6,0.7-12.1,1.1c-0.7,0.5-0.9,0.5-0.9-0.1c0-0.6-0.8-0.7-2.6-0.5
					c-1.4,0.2-4.8,0.4-7.6,0.6l-5,0.2l-1-2.7c-0.6-1.5-1.1-3.8-1.3-5c-0.2-1.3-0.6-2.9-1-3.6c-0.7-1.4-2-1.7-2-0.5
					c0,0.4-0.3,0.5-0.8,0.2c-0.5-0.3-0.4-0.7,0.4-1.4c1.1-0.8,1.1-1.1-0.3-4.7c-1.4-3.4-2.7-4.9-2.7-3.1c0,0.4-0.3,0.5-0.7,0.3
					c-0.4-0.3-0.3-0.8,0.3-1.5c1.3-1.3,1.3-1.8,0-4.9C658.1,121.3,657.4,120.9,653.3,121.7L653.3,121.7z M647,128.7
					c0,0.4-0.3,0.7-0.7,0.7c-0.4,0-0.5-0.3-0.3-0.7c0.2-0.4,0.5-0.7,0.7-0.7C646.9,128,647,128.3,647,128.7L647,128.7z M658.4,134.2
					c-0.2,0.4-0.1,0.8,0.3,1.1c1.7,1-0.3,1.8-2.7,1.1c-0.1,0,0.3-0.7,1-1.4C658.2,133.4,659,133,658.4,134.2L658.4,134.2z
					 M661.2,141c-0.2,2.1,0,2.8,0.9,3c0.7,0.2,1.7,1.8,2.5,3.8c0.8,2.1,1.6,3.4,2.1,3.2c0.5-0.2,0.7,0.1,0.5,0.6
					c-0.5,1.2-4,0.3-4.1-1c0-0.5-0.2-1.2-0.3-1.5c-0.3-0.9-0.5-1.9-0.6-2.7c0-0.4-0.6-0.5-1.1-0.3s-0.9,0.1-0.7-0.2
					c0.2-0.4,0.1-0.8-0.3-1c-0.4-0.2-0.5-0.7-0.3-1.1c0.2-0.4,0-0.7-0.4-0.7c-0.5,0-0.6-0.6-0.3-1.5c0.3-0.8,0.5-1.9,0.6-2.4
					c0-0.5,0.5-0.9,1-0.9C661.2,138.3,661.4,139,661.2,141L661.2,141z M569.6,170.1c-0.2,0.2-0.8,0.3-1.3,0.1
					c-0.5-0.2-0.4-0.4,0.4-0.4C569.5,169.7,569.9,169.9,569.6,170.1L569.6,170.1z M638.2,172.4c0,0.3-0.6,0.6-1.4,0.6
					c-1.5,0.1-1.9-0.9-0.5-1.4C637.3,171.2,638.2,171.6,638.2,172.4L638.2,172.4z M632.9,172.8c-0.2,0.6-0.7,1-1.1,1
					c-0.4,0-0.3-0.4,0.2-1c0.5-0.6,0.9-1,1.1-1C633.2,171.8,633.1,172.2,632.9,172.8L632.9,172.8z M625,174.3
					c0.1,0.4-0.4,0.6-1.5,0.4c-1-0.2-1.7-0.6-1.7-0.9C621.8,173,624.7,173.5,625,174.3L625,174.3z M621.1,174.5
					c0,0.4-0.8,0.7-1.9,0.6l-1.9-0.1l1.7-0.5c1-0.3,1.8-0.6,1.9-0.6C621,173.8,621.1,174.1,621.1,174.5L621.1,174.5z M609.6,175.3
					c-0.8,0.8-10.4,1.8-9.7,1c0.2-0.2,2.3-0.7,4.5-1.1C610.3,174.4,610.5,174.4,609.6,175.3L609.6,175.3z M598.8,176.4
					c0.2,0.3-0.9,0.6-2.5,0.7c-1.6,0.1-3.7,0.3-4.8,0.5c-1.1,0.2-1.9,0.1-1.9-0.3c0-0.4,1.4-0.8,3.3-0.9c1.8-0.1,3.8-0.3,4.4-0.4
					C597.9,175.9,598.6,176.1,598.8,176.4L598.8,176.4z M759.1,177.5c0.7,0.8,0.6,0.9-0.6,0.6c-1.7-0.4-2.5-1.6-1.2-1.6
					C757.8,176.5,758.6,177,759.1,177.5L759.1,177.5z M580.2,178.6c1.3,0-0.1,0.9-1.5,1c-0.8,0.1-1.4-0.3-1.4-0.9
					c0-0.6,0.4-0.8,1.1-0.6C579,178.4,579.8,178.6,580.2,178.6L580.2,178.6z M586.5,178.6c-0.2,0.4-0.7,0.7-1,0.7
					c-0.4,0-0.6-0.3-0.6-0.7c0-0.4,0.5-0.7,1-0.7C586.5,177.9,586.8,178.2,586.5,178.6L586.5,178.6z M757.3,181
					c0.2,0.7,0.1,0.9-0.3,0.7c-0.4-0.2-0.7-0.7-0.7-1.1C756.4,179.6,756.9,179.8,757.3,181L757.3,181z"/>
				<path class="st0" d="M664.5,204.4c-0.3,0.3-3.6,0.5-7.5,0.5c-5.4,0-7,0.2-6.8,0.9c0.1,0.5-0.1,0.7-0.5,0.5
					c-0.4-0.2-0.6-0.6-0.4-0.9c0.2-0.3-0.6-0.5-1.7-0.6c-1.3-0.1-1.8,0.2-1.6,0.7c0.2,0.5-0.2,0.9-1,0.9c-0.7,0.1-1.5-0.4-1.7-0.9
					c-0.3-0.8-0.6-0.9-1.4-0.2c-0.6,0.5-1.3,0.6-1.7,0.4c-0.4-0.3-0.7-0.1-0.7,0.5c0,0.7-0.2,0.7-0.6,0c-0.4-0.7-1-0.8-2.5-0.3
					c-1.1,0.4-2.7,0.6-3.6,0.4c-0.9-0.1-2.1,0.1-2.7,0.6c-0.8,0.7-1.1,0.7-1.3,0c-0.2-0.5-1.3-0.8-2.6-0.8c-1.6,0-2.2,0.3-2,0.9
					c0.2,0.6-0.4,0.9-2.4,0.8c-1.5,0-2.6-0.3-2.6-0.7c0.1-0.4-0.2-0.6-0.6-0.6c-3.1,0.4-10.5,1.1-11.6,1.1c-0.7,0-1.8,0.3-2.3,0.8
					c-0.8,0.7-0.9,0.6-0.5-0.1c0.5-0.8,0.1-0.9-2.1-0.5c-1.5,0.3-6.8,0.6-11.9,0.8c-16.7,0.7-18.8,0.8-20.8,1.3
					c-2.6,0.6-3.1,1-3.1,2.1c0,0.5-0.5,1.1-1.1,1.3c-0.7,0.2-0.9,0.9-0.7,1.5c0.2,0.6,0,1.2-0.6,1.4c-1.2,0.5-1.3,2.3-0.1,2.3
					c1.2,0-2.4,1.9-3.8,2c-0.7,0-1.2,0.4-1.2,0.8c0,0.4,0.3,0.5,0.7,0.3c0.4-0.2,2,0.1,3.4,0.8c2.6,1.1,2.7,1.3,2.4,3.6
					c-0.2,1.3-0.6,5-0.8,8.2c-1,12.9-1.4,17.5-2.6,28c-1.1,10.2-0.8,12.6,1.8,12.9c1.3,0.2,2.2,0.8,2.6,1.9c0.3,0.9,0.9,1.6,1.1,1.5
					c0.3-0.1,1.2,0.3,2.1,0.7c0.8,0.5,1.9,0.7,2.2,0.4c0.4-0.2,0.7-0.1,0.7,0.3c0,0.4-0.4,0.9-0.9,1.1c-0.5,0.2-0.1,0.2,0.8,0
					c1-0.2,1.9-0.6,2.1-0.8c0.2-0.2,0.6-0.5,1-0.5c0.4-0.1,3.2-0.4,6.2-0.8c3-0.4,7.3-0.9,9.6-1.1c2.3-0.2,5.3-0.5,6.8-0.7
					c1.5-0.2,4.7-0.5,7.2-0.7c2.5-0.2,8.8-0.9,14-1.4c10-1.1,14.7-1.4,25.6-1.7c3.6-0.1,6.8-0.5,7.1-0.9c0.3-0.4,0.5,0.3,0.4,1.4
					c-0.1,1.4-0.5,2-1.4,2c-1-0.1-1.1,0.1-0.2,1.3c0.7,1,0.8,1.8,0.3,2.6c-0.4,0.8-0.4,1.4,0.1,1.7c0.4,0.3,0.5,0.8,0.1,1.2
					c-0.4,0.4-0.6,2.1-0.6,3.7c0.1,1.6-0.1,2.9-0.3,2.9c-0.2,0-0.2,1.4-0.1,3.1c0.1,1.7,0.5,3.1,0.8,3.1c0.9,0,0.7,1.9-0.3,2.3
					c-0.7,0.3-0.7,0.5,0,0.8c0.5,0.2,0.9,0.7,0.9,1.1c0,0.4-0.3,0.5-0.7,0.3c-0.4-0.2-0.7,0.5-0.7,1.7s0.3,1.9,0.7,1.7
					c0.8-0.5,1,3.3,0.2,4c-0.3,0.3-0.5,2.1-0.6,4c-0.3,23.4-0.6,27.1-1.6,27.1c-0.2,0-0.3-1.1-0.2-2.4c0.2-1.3,0-2.4-0.3-2.4
					c-0.8,0-0.7,6.2,0,7.4c0.4,0.7,0.4,0.8-0.2,0.5c-0.5-0.3-0.8,0.1-0.8,1.1c0,3.1-6.9,11-9,10.3c-0.3-0.1-0.5,0.1-0.5,0.4
					c0,0.3-0.7,0.9-1.7,1.4c-1,0.4-1.7,1.1-1.7,1.5c0,0.9,0.8,0.8,3.2-0.1c1.1-0.4,2.3-0.9,2.8-1c0.5-0.1,2.2-1.3,3.9-2.6
					c2.9-2.3,4.1-2.6,3.3-0.7c-0.2,0.5-0.9,1-1.6,1c-0.7,0-1.4,0.6-1.6,1.3c-0.4,1.7-12,7.3-16.2,7.9c-7.4,1.1-11.5,2.9-11.8,5.2
					c-0.1,0.5-0.4,1.2-0.6,1.7c-0.3,0.5,0,1,0.6,1.2c1,0.4,0.9,0.6-0.4,1.7c-0.8,0.7-1.8,2.5-2.2,3.8c-0.5,1.9-0.9,2.3-1.5,1.8
					c-1-1-1.8-1-1.8,0c0,0.4,0.4,0.5,0.7,0.2c0.5-0.3,0.7,0.4,0.4,2.4c-0.2,1.6-0.2,2.7,0,2.5c0.2-0.2,0.9,0.2,1.5,0.9
					c0.7,0.9,1.8,1.2,3.1,1c1.1-0.2,3.2-0.4,4.6-0.6c1.4-0.2,2.9-0.5,3.3-0.7c0.4-0.2,1.2-0.1,1.9,0.3c0.7,0.4,0.9,0.7,0.5,0.7
					c-1.1,0.1,2.7,2,3.9,2.1c0.6,0,1.3-0.5,1.5-1c0.2-0.6,0.2-0.9-0.1-0.7c-0.3,0.2-0.9,0-1.5-0.4c-0.9-0.6-0.9-0.6,0-0.4
					c0.6,0.2,1.6,0,2.2-0.3c0.9-0.5,1.2-0.4,1.2,0.4c0,0.8,0.6,0.9,2.5,0.6c3.8-0.5,13-3.7,13.9-4.8c0.4-0.5,1.6-0.9,2.7-0.9
					c1.1,0,2-0.3,2-0.7c0-0.4,0.7-0.7,1.4-0.7c2.1,0,5.4-1.9,5.5-3.3c0-0.7,0.2-0.8,0.4-0.4c0.9,2.1,7.4-2.9,8-6.2
					c1.3-6.7,1.7-10.8,1.3-17.9c-0.6-14.4-0.7-18.4-0.3-19.1c0.2-0.4,0.4-1.7,0.5-3c0.1-1.3,0.3-5,0.5-8.4c0.3-5.5,0.5-7.5,1.6-14.2
					c0.2-1.3,0.5-3,0.6-3.8c0.1-0.8-0.3-1.9-0.9-2.6c-0.8-0.8-0.8-1.2-0.2-1c0.6,0.2,1-0.7,1.1-2.7c0.2-1.9,0-2.8-0.5-2.5
					c-0.4,0.3-0.4-0.1,0.1-1c0.5-0.9,0.6-2.9,0.3-5.4c-0.3-2.7-0.6-3.5-0.9-2.6c-0.3,0.7-0.5-0.6-0.4-2.9c0-2.3,0.2-4.3,0.4-4.3
					c0.2,0,0.4-0.7,0.4-1.6c0-0.9-0.2-1.5-0.5-1.4c-0.3,0.2-0.7,0-0.9-0.4c-0.5-0.8-0.6-0.8,7.8-1.2c22.8-1.2,71.8-1.1,79.4,0.2
					c2.1,0.3,2.7,0.2,3.6-1.2c0.9-1.3,1.2-1.4,1.8-0.6c0.6,0.9,0.7,0.9,0.7,0c0-0.6,0.6-1.4,1.4-1.9c1-0.6,1.4-1.6,1.4-3.6
					c0-1.5-0.3-2.7-0.7-2.7c-0.4,0-0.7-0.5-0.7-1s0.3-0.9,0.7-0.6c0.4,0.2,0.7,0.1,0.7-0.3c0-0.4-0.3-0.7-0.7-0.7
					c-0.4,0-0.7-0.5-0.7-1.2c0-1,0.1-1,0.6-0.2c1.2,1.8,1.9-0.2,2.3-6.3c0-0.7,0.4-1.2,0.7-1.2c0.7,0,0.2-9.8-0.7-11.9
					c-0.4-0.9-0.3-1.2,0.3-0.8c0.5,0.3,0.8,0.2,0.8-0.2c0-0.4-0.3-0.9-0.7-1.1c-0.4-0.2-0.5-2.9-0.4-6c0.2-3.1,0-7.4-0.3-9.5
					c-0.3-2.1-0.3-4.3,0-4.8c0.6-0.9-0.3-2.8-2.2-4.7c-1.3-1.3-1.4-1.2-3.3,0.7c-2.2,2.2-3.5,2.6-3.5,1c0-0.6-0.6-1-1.3-1
					c-0.7,0-1.9-0.6-2.7-1.3c-1.6-1.5-6.3-2-6.3-0.7c0,1-1,0.8-2.4-0.5c-0.8-0.7-1.7-1.2-2.2-1c-0.4,0.1-1.4-0.1-2.1-0.4
					c-0.8-0.4-1.7-0.4-2.4,0c-0.8,0.5-1.4,0.3-1.9-0.6c-0.7-1.1-0.8-1.1-2.1,0.4c-1.3,1.5-1.5,1.5-2.6,0.5c-1.4-1.2-3.2-1.5-3.8-0.5
					c-0.4,0.7-10.6,0.7-10.6,0c0-0.3-0.6-0.4-1.3-0.2c-0.8,0.2-2.2,0-3.4-0.4c-1.3-0.4-2.2-0.5-2.5-0.1c-0.8,1.3-3.7,0.7-4.4-0.8
					l-0.6-1.6l0,1.5c0,1.2-0.4,1.5-2.1,1.5c-1.2,0-1.9-0.3-1.7-0.7c0.2-0.4,0-0.9-0.5-1.2c-1.2-0.8-3.4-1-3-0.3c0.2,0.3,0,1-0.3,1.5
					c-0.6,0.8-0.7,0.8-1.3-0.2c-0.6-1-0.9-1-2.5-0.2c-1.2,0.6-2,0.7-2.3,0.2c-0.2-0.4-0.7-0.8-1-0.8c-0.4-0.1-0.5-0.3-0.4-0.6
					c0.1-0.3-0.3-0.5-0.8-0.5c-0.6,0-0.9,0.4-0.8,0.8c0.1,0.5-0.7,0.9-2,0.9c-1.4,0-2.2-0.3-2.2-0.8c0-0.5-0.3-0.9-0.7-0.9
					c-0.4,0-0.6,0.4-0.5,0.8c0.2,1.2-2.3,1.5-3,0.4c-0.4-0.7-0.6-0.7-0.6-0.1c0,0.5-0.8,0.8-1.7,0.8c-1.2,0-1.7-0.4-1.7-1.2
					c0-1-0.7-1.2-4.1-1.2c-2.9,0-4,0.2-3.8,0.8c0.2,0.4-0.3,1-1,1.2c-0.7,0.2-1.2,0.1-1-0.2c0.2-0.3-0.1-0.9-0.7-1.4
					c-0.8-0.6-1.1-0.5-1.7,0.6c-0.4,0.8-1.1,1.4-1.5,1.4c-0.5,0-0.5-0.3,0.1-1C666.2,204.6,665.4,203.5,664.5,204.4L664.5,204.4z
					 M654.9,205.9c0.2,0.4,0.1,0.7-0.3,0.7c-0.4,0-0.7-0.3-0.7-0.7c0-0.4,0.1-0.7,0.3-0.7S654.6,205.5,654.9,205.9L654.9,205.9z
					 M593.7,222.5c0,0.3-0.9,0.4-2,0.1c-1.2-0.3-2.1-0.2-2.1,0.3c0,0.6-2.3,1.3-6.1,1.7c-0.6,0.1-1-0.7-1.2-2l-0.2-2.1l4.5-0.1
					c2.5,0,4.7-0.2,4.9-0.5C592,219.5,593.7,221.6,593.7,222.5L593.7,222.5z M603.8,220.5c0.4,0.4-2.4,0.7-5.1,0.6
					c-0.5,0-0.8,0.3-0.8,0.6c0,1.1-3.6,0.3-3.8-0.8c-0.1-0.9,0.7-1,4.5-1C601.2,220,603.5,220.3,603.8,220.5L603.8,220.5z
					 M692.8,222.7c4,0.2,9.3,0.5,12,0.7c2.6,0.1,4.9,0.3,5.1,0.4c0.2,0.1,1.3,0.1,2.6,0c1.7-0.1,2.2,0.1,2,0.8
					c-0.2,0.5-0.8,0.8-1.3,0.7c-1.1-0.3-35.3-0.1-46.8,0.3c-9.8,0.3-21,0.5-24.1,0.4c-1.9-0.1-2.2-0.3-1.9-1.2
					c0.4-1.1,0.4-1.1-0.5,0c-1,1.2-6.6,2.5-6.6,1.4c0-0.3,0.5-1.2,1-1.8c0.8-1,1.2-1.1,2.3-0.5c0.9,0.5,1.5,0.5,1.8,0
					c0.6-1,12.2-0.8,13.3,0.2c0.5,0.5,0.7,0.5,0.5,0.1c-0.7-1.3,1.7-1.5,15.6-1.6c7.1,0,13-0.2,13.1-0.3c0.1-0.1,1.2-0.1,2.4,0
					C684.6,222.2,688.8,222.5,692.8,222.7L692.8,222.7z M632.7,224.8c0,1.7-0.2,1.8-3.3,1.8c-1.8,0-4.7,0.2-6.5,0.4
					c-2.3,0.3-3.6,0.1-4.4-0.6c-1-0.8-1.1-0.8-0.5,0.1c0.5,0.9,0.5,0.9-0.5,0.1c-0.7-0.5-1.1-1.2-1.1-1.5c0-0.6,6.3-0.4,7.6,0.3
					c0.5,0.3,0.3,0-0.4-0.6c-1.3-1-1.2-1.1,0.8-1.1c1.2,0,2.2,0.3,2.2,0.7c0,0.4,0.8,0.7,1.9,0.7c1.4,0,1.6-0.2,0.9-0.6
					c-0.7-0.5-0.5-0.7,1-0.9c1.1-0.2,2.1-0.4,2.2-0.4C632.6,223.1,632.7,223.8,632.7,224.8L632.7,224.8z M614.4,224.9
					c-0.5,0.2-0.8,0.7-0.8,1.2c0,0.4-0.6,0.8-1.3,0.8c-1,0-1.2-0.3-0.7-1.2c0.4-0.7,1.3-1.2,2.2-1.2
					C614.6,224.5,614.9,224.7,614.4,224.9L614.4,224.9z M727.8,225.9c-0.5,0.5-0.8,0.6-0.8,0.1c0-0.9,0.8-1.7,1.2-1.2
					C728.4,224.9,728.2,225.4,727.8,225.9L727.8,225.9z M608.8,226.1c0,0.6-0.1,1-0.3,1s-0.4-0.4-0.7-1c-0.2-0.6-0.1-1,0.3-1
					C608.5,225.1,608.8,225.5,608.8,226.1L608.8,226.1z M725.1,225.5c-0.4,0.2-1.3,0.2-1.7,0c-0.5-0.2-0.1-0.3,0.8-0.3
					C725.2,225.2,725.6,225.3,725.1,225.5L725.1,225.5z M739.3,225.6c0,0.3-0.4,0.6-1,0.6c-0.6,0-0.9-0.2-0.7-0.6
					c0.2-0.3,0.6-0.6,1-0.6C739.1,225.1,739.3,225.3,739.3,225.6L739.3,225.6z M602.6,227.1c0.8,0.8,1.1,1.3,0.8,1.3
					c-0.3,0-0.9-0.4-1.4-0.8c-0.7-0.6-0.8-0.4-0.7,0.9c0.2,1.7,0.3,1.7,4.6,1.4c2.4-0.1,7.5-0.3,11.1-0.4c5.2-0.1,6.6-0.3,6.3-1
					c-0.2-0.5,0-0.7,0.3-0.5c1.2,0.8,8.9,0.5,10-0.4c0.7-0.5,1-0.6,1-0.1c0,0.5,8.1,0.7,28.9,0.7c33.1,0,51.4,0.5,53.2,1.4
					c0.8,0.4,1.3,0.4,1.5-0.2c0.2-0.6,0.6-0.7,1.3-0.1c0.5,0.4,2.6,0.7,4.6,0.7c2,0,3.6,0.1,3.6,0.3c0,0.3,6.5,0.8,12.6,1l3.4,0.1
					l-0.1,6.2c-0.1,6.1-1.6,11.1-3.1,10.2c-0.4-0.2-0.7-0.1-1,0.3c-0.2,0.4-1.9,0.5-3.8,0.4c-1.9-0.1-3.4,0-3.4,0.4
					c0,0.3-1,0.5-2.2,0.3c-1.2-0.2-4.8-0.1-8,0.3s-5.9,0.3-6,0c-0.1-0.3-0.8-0.2-1.5,0.1c-1.1,0.6-11.1,0.5-19.7-0.2
					c-2.1-0.2-3.6,0-3.6,0.4c0,0.4-0.3,0.4-0.8,0.1c-0.8-0.6-7.6-0.6-12.8,0c-1.3,0.1-3.1,0-4-0.4c-1.1-0.5-1.8-0.5-2.3,0.1
					c-0.6,0.6-1,0.6-1.7,0c-0.7-0.5-1.2-0.5-2.1,0.2c-1,0.8-1.1,0.8-0.6,0c0.4-0.7,0.3-0.8-0.4-0.4c-1.5,0.9-6.4,1.2-10,0.7
					c-1.2-0.2-2.2-0.1-2.2,0.3c0,0.4-0.5,0.7-1.1,0.7s-0.9-0.3-0.7-0.7c0.2-0.4-0.5-0.4-1.8,0c-1.3,0.4-2.6,0.4-3.4,0
					c-0.7-0.4-1.4-0.4-1.6,0c-0.2,0.4-1,0.5-1.8,0.3c-0.8-0.2-1.4,0-1.4,0.4c0,0.6-0.4,0.6-1.4,0c-0.8-0.4-2-0.5-2.6-0.3
					c-1.2,0.5-11.8,1.2-17.5,1.2c-4.6,0-25.6,2.1-25.6,2.6c0,0.6-8,0.5-8.6-0.1c-0.8-0.8-1-3.3-0.3-3.3c0.5,0,0.6-2.8,0.3-8.7
					c-0.2-4.8-0.4-9.2-0.4-9.9c0-0.7-0.5-1.3-1.1-1.5c-0.6-0.2-0.9-0.7-0.6-1.1c0.2-0.4,0.7-0.5,1.2-0.2c0.5,0.3,0.6,0.1,0.4-0.6
					c-0.3-0.7,0.1-1.1,1.4-1.1c1-0.1,2.7-0.2,3.7-0.3c2.1-0.3,2.2-0.2,1.2,1.7c-0.9,1.7,0.5,2.3,4.5,1.7c2.3-0.3,3.1-0.7,3.1-1.7
					c0-0.7-0.4-1.4-0.8-1.6c-0.6-0.3-0.6-0.5,0.2-1.1C601.1,225.7,601.1,225.7,602.6,227.1L602.6,227.1z M596.8,227.1
					c0.2,0.4,0.3,1,0,1.4c-0.6,0.9-2.4,0.1-2.4-1C594.4,226.3,596.2,226.1,596.8,227.1L596.8,227.1z M599.9,229.1
					c0,0.4-0.4,0.7-0.7,0.7c-0.4,0-0.5-0.3-0.3-0.7c0.2-0.4,0.6-0.7,0.7-0.7C599.8,228.5,599.9,228.8,599.9,229.1L599.9,229.1z
					 M578.6,232.8c0.1,1.4-0.1,2.5-0.5,2.5c-0.4,0-0.7-0.7-0.7-1.6c0-0.9-0.2-2.1-0.5-2.8c-0.3-0.8-0.2-1.1,0.5-0.9
					C577.9,230.2,578.5,231.4,578.6,232.8L578.6,232.8z M585.8,231.8c0.2,0.4,0.2,0.8-0.2,1c-0.3,0.2-0.8-0.1-1-0.7
					C584.2,231.1,585.2,230.8,585.8,231.8L585.8,231.8z M747.5,234.4c0.4,1,0.6,2.8,0.6,3.9c-0.1,1.2,0.1,2.8,0.4,3.6
					c0.3,0.9,0.2,1.5-0.2,1.5c-0.4,0-0.8,0.7-0.9,1.6c-0.1,0.9-0.8,1.7-1.6,1.8c-1.1,0.2-1.2,0.1-0.5-0.8c1-1.2,1.3-7.1,0.6-10.9
					C745.3,232.2,746.4,231.6,747.5,234.4L747.5,234.4z M751.8,237.7c0.2,0.6,0.1,1-0.2,1s-0.8-0.5-1-1c-0.2-0.6-0.1-1,0.2-1
					C751.2,236.7,751.6,237.1,751.8,237.7L751.8,237.7z M575.1,246.6c0,0.5-0.3,0.8-0.6,0.6c-0.4-0.2-0.4-0.6-0.2-1
					C574.8,245.3,575.1,245.4,575.1,246.6L575.1,246.6z M673,274.6c0,0.5-0.3,1.1-0.6,1.3c-0.3,0.2-0.6-0.4-0.5-1.3
					C672,273,673,272.9,673,274.6L673,274.6z M649.8,349c-0.5,0.5-0.7,0.4-0.7-0.6c0-1.8,0.9-2.8,1.2-1.3
					C650.4,347.7,650.2,348.5,649.8,349L649.8,349z M665.2,366.5c-0.1,0.2-0.4,1-0.7,1.7c-0.5,1.3-0.5,1.3-1.4,0
					c-0.5-0.7-0.8-1.5-0.7-1.8C662.8,365.8,665.5,365.9,665.2,366.5L665.2,366.5z M661.7,368.3c0.6,0.2,1.1,1.1,1.1,1.8
					c0,0.8-0.1,1.3-0.3,1.1c-0.2-0.2-0.3-0.5-0.2-0.8c0.1-0.3-0.5-0.9-1.3-1.5C659.6,367.9,659.9,367.6,661.7,368.3L661.7,368.3z
					 M659.6,369.1c0.2,0.3-0.2,1.1-1,1.7c-1.6,1.4-2.4,0.3-0.9-1.2C658.9,368.4,659.1,368.3,659.6,369.1L659.6,369.1z M651.8,372.6
					c0,0.4-0.3,0.7-0.7,0.7c-0.4,0-0.7-0.3-0.7-0.7c0-0.4,0.3-0.7,0.7-0.7C651.6,372,651.8,372.3,651.8,372.6L651.8,372.6z"/>
				<path class="st0" d="M703.1,284.2c0,0.8,0.2,1,0.4,0.4c0.2-0.5,0.2-1.1-0.1-1.3C703.3,283.1,703.1,283.5,703.1,284.2
					L703.1,284.2z"/>
				<path class="st0" d="M702,287.1c0.3,0.7,0.2,0.9,0,0.7c-0.3-0.3-0.9-0.2-1.4,0.3c-0.7,0.6-1,0.5-1.3-0.4
					c-0.2-0.6-0.9-1.1-1.4-1.1c-1.2,0-1.2-0.3,0.1,5.1c0.6,2.5,0.9,5.2,0.6,6.1c-0.3,1,0,2,0.8,2.8c0.7,0.7,1.2,2.1,1.3,3
					c0.1,1,0.3,2.4,0.6,3.2c2.1,5.2,2.8,6.5,3.7,6.5c0.6,0,0.7,0.2,0.3,0.4c-0.9,0.4,0.1,4.1,1.6,5.6c0.5,0.5,0.9,1.4,0.9,1.9
					c0,0.5,0.3,1,0.6,1c0.3,0,1.9,2.6,3.5,5.9c1.6,3.3,3.5,6.1,4.2,6.5c0.7,0.4,1.7,1.6,2.3,2.7c1.2,2.3,7.7,8.8,8.8,8.8
					c0.4,0,1.5,0.8,2.4,1.8c1.7,1.8,6.2,4.4,7.7,4.4c1.6,0,6.1,2.5,5.5,3c-0.3,0.3-0.2,0.4,0.2,0.2c0.4-0.2,2.4,0.1,4.4,0.6
					c5.5,1.4,8.1,1.6,9,0.5c0.4-0.5,2.1-1,3.8-0.9c2.1,0,3.1-0.3,3.4-1c0.2-0.6,0.8-1,1.4-1c1.4,0,3.1-4.2,2.1-5.3
					c-0.5-0.6,0.1-1.6,2.2-3.6c2.3-2.3,2.7-3,2-3.8c-0.6-0.8-0.5-1,0.6-1c0.8,0,1.6-0.3,1.8-0.7c0.2-0.4,0-0.7-0.6-0.7
					c-0.6,0-1-0.6-1-1.3c0-1.5-1-1.9-6.8-2.1c-2.4-0.1-5-0.6-5.8-1.1c-0.8-0.5-3.3-0.9-5.6-0.9c-7.3-0.1-12-2.1-17.8-7.7
					c-1.6-1.5-3.2-2.6-3.6-2.3c-0.4,0.3-0.7-0.1-0.7-1c0-0.8-0.5-1.6-1-1.8c-0.6-0.2-1-0.8-1-1.4c0-0.5-0.3-0.8-0.7-0.6
					c-0.4,0.2-1-0.2-1.4-1c-0.4-0.8-1.2-1.4-1.8-1.4c-0.6,0-1-0.7-1-1.7c0-0.9-0.2-1.7-0.5-1.7c-0.3,0-1.1-1-1.8-2.2
					c-1.7-2.9-8.3-12.9-9.4-14.3c-0.5-0.5-1.4-1.3-2.1-1.5c-0.9-0.3-1.1-0.9-0.8-1.9c0.2-0.8,0.1-1.4-0.3-1.4
					c-0.4,0-0.7-0.4-0.8-0.8c-0.1-1.2-4-4.1-5.9-4.3C702,286,701.7,286.3,702,287.1L702,287.1z"/>
				<path class="st0" d="M612.7,289.6c-1,1.3-1.9,2.8-1.9,3.3c0,1.7-0.8,3.2-1.4,2.8c-0.3-0.2-0.8,0.4-1,1.4c-0.3,1-0.7,1.6-1,1.3
					c-0.3-0.2-0.6,0.4-0.6,1.4c0,1-0.5,2-1,2.2c-0.6,0.2-0.9,0.6-0.7,0.9c0.2,0.3-0.2,0.7-1,1c-0.8,0.2-1.4,1-1.4,1.8
					c0,2-1.3,4.1-2.2,3.6c-0.5-0.3-0.6-0.2-0.3,0.3c0.3,0.4-1,1.9-3.1,3.5c-2,1.5-4,3.4-4.5,4.1c-0.5,0.8-1.3,1.4-1.9,1.4
					c-0.6,0-1,0.3-1,0.7c0,0.4-0.4,0.7-1,0.7c-0.6,0-1,0.3-1,0.7c0,0.4-0.8,1.1-2,1.7c-1.1,0.5-3,2-4.2,3.3c-1.2,1.2-2,1.8-1.7,1.3
					c0.5-0.9,0.4-0.9-0.7,0c-0.7,0.5-1.9,1.6-2.5,2.2c-0.7,0.7-1.7,1.5-2.3,1.8c-1,0.6-1,0.8-0.2,1.9c0.9,1.2,0.9,1.2-0.2,0.4
					c-0.8-0.6-1.3-0.7-1.6-0.2c-0.2,0.4-0.7,0.6-1.1,0.4c-0.4-0.2-0.7,0.1-0.7,0.7c0,0.6-0.9,1.5-2,2.1c-1.1,0.6-2.4,1.6-2.9,2.3
					c-0.5,0.7-2.8,2.3-5.1,3.4c-2.3,1.2-4.2,2.4-4.2,2.7c0,1,2.7,2.2,3.8,1.8c0.5-0.2,1,0,1,0.5c0,1,2.6,2.7,3.4,2.2
					c0.3-0.2,0.7,0.3,0.9,1.1c0.3,1.2,0.7,1.4,2.4,1c1.6-0.3,2.3-0.1,3,1.1c0.8,1.3,1.7,1.5,5.6,1.6c6.7,0.2,12.1-2.7,19.6-10.2
					c6.1-6.2,5.9-5.9,10.6-12.1c3.6-4.7,7.7-11.2,7.7-12.2c0-0.3,0.5-1,1-1.4c0.6-0.5,1-1.3,1-1.8c0-0.5,0.7-2.4,1.5-4.2
					c0.8-1.8,1.8-4.3,2.1-5.6c2.7-10.4,2.7-12.6,0-15.9c-1.8-2.2-2.5-2-4,1.3c-0.6,1.3-1.4,2.3-1.8,2.3c-0.4,0-0.2-0.5,0.3-1.1
					c0.5-0.6,0.8-1.7,0.7-2.4c-0.1-0.7,0.1-1.8,0.6-2.3c0.6-0.8,0.6-1-0.1-1C615,287.3,613.7,288.3,612.7,289.6L612.7,289.6z
					 M610.9,319.2c-0.6,1-0.7,1.1-0.8,0.2c0-1.2,0.6-2.2,1.1-1.7C611.5,317.7,611.3,318.4,610.9,319.2L610.9,319.2z M590.5,322.4
					c-0.2,0.6-0.5,1-0.7,1c-0.1,0-0.3-0.5-0.3-1c0-0.6,0.3-1,0.7-1C590.6,321.4,590.8,321.9,590.5,322.4L590.5,322.4z M607.4,324.5
					c-1,1.2-2,1.4-2,0.3c0-0.4,0.3-0.5,0.6-0.3c0.3,0.2,0.8-0.1,1-0.7c0.2-0.7,0.6-1,0.8-0.7C608.1,323.2,607.9,323.9,607.4,324.5
					L607.4,324.5z M603.3,329.3c-1.3,1.3-2.7,2.4-3.1,2.4c-0.4,0-0.1-0.5,0.6-1c0.7-0.5,1.1-1,0.8-1c-0.3,0,0.1-0.9,1-2.1
					c1.1-1.5,1.7-1.9,2.2-1.4C605.4,326.7,604.9,327.6,603.3,329.3L603.3,329.3z M598.5,333c-0.5,0.3-0.7,0.9-0.3,1.4
					c0.4,0.6,0.3,0.7-0.2,0.4c-1-0.6-1-2,0-3c0.7-0.7,0.9-0.7,1.1-0.1C599.3,332.1,599,332.8,598.5,333L598.5,333z M596.2,337
					c-0.5,1.2-0.5,1.2-1.2,0c-0.8-1.5-0.1-3,1-2C596.3,335.4,596.4,336.3,596.2,337L596.2,337z M591.2,339.6
					c-0.2,0.6-0.5,0.9-0.7,0.7c-0.2-0.2-0.1-0.7,0.1-1C591.3,338.1,591.7,338.3,591.2,339.6L591.2,339.6z M586.2,343.3
					c0,0.4-0.4,0.7-0.7,0.7c-0.4,0-0.5-0.3-0.3-0.7c0.2-0.4,0.6-0.7,0.7-0.7C586.1,342.6,586.2,342.9,586.2,343.3L586.2,343.3z
					 M585.2,345.3c0.2,0.4,0.1,0.7-0.3,0.7c-0.4,0-0.7-0.3-0.7-0.7c0-0.4,0.1-0.7,0.3-0.7C584.6,344.6,584.9,344.9,585.2,345.3
					L585.2,345.3z"/>
				<path class="st0" d="M648.5,330.7c0,0.8,0.2,1,0.4,0.4c0.2-0.5,0.2-1.1-0.1-1.3C648.6,329.6,648.4,330,648.5,330.7L648.5,330.7z
					"/>
				<path class="st0" d="M630.6,356.6c-1.3,0.5-1.8,0.9-1.2,0.9c0.7,0,1,0.4,0.8,0.8c-0.7,1.2,0.3,0.7,1.8-0.8
					C633.9,355.8,633.6,355.6,630.6,356.6L630.6,356.6z"/>
				<path class="st0" d="M588.5,229.5c-0.6,0.7-0.5,0.9,0.5,1.2c1.9,0.5,2.9-0.4,1.5-1.3C589.6,228.9,589,228.9,588.5,229.5
					L588.5,229.5z"/>
			</g>
		</g>
	</g>
	<g>
		<g>
			<g>
				<path d="M465.3,223.6h-19.6v-14.3h57.1v14.3h-19.5V273h-18V223.6z"/>
			</g>
			<g>
				<path d="M570.3,209.3V273h-18v-24.9h-24.6V273h-18v-63.8h18v24h24.6v-24H570.3z"/>
			</g>
			<g>
				<path d="M634.3,259.1V273h-51.2v-63.8h50v13.9h-32.2v10.8h28.3v13.5h-28.3v11.7H634.3z"/>
			</g>
		</g>
		<g>
			<g>
				<path d="M285.7,338.1H254v-23.2h92.5v23.2H315v80.1h-29.2V338.1z"/>
			</g>
			<g>
				<path d="M385.1,413.3c-8.7-4.6-15.5-11-20.5-19.2c-5-8.2-7.5-17.4-7.5-27.6s2.5-19.4,7.5-27.6c5-8.2,11.8-14.6,20.5-19.2
					c8.7-4.6,18.5-6.9,29.4-6.9c10.9,0,20.7,2.3,29.4,6.9c8.7,4.6,15.5,11,20.5,19.2c5,8.2,7.5,17.4,7.5,27.6s-2.5,19.4-7.5,27.6
					c-5,8.2-11.8,14.6-20.5,19.2s-18.5,6.9-29.4,6.9C403.6,420.3,393.8,418,385.1,413.3z M428.7,392.4c4.2-2.5,7.6-5.9,10-10.4
					c2.5-4.5,3.7-9.6,3.7-15.4s-1.2-10.9-3.7-15.4c-2.5-4.5-5.8-7.9-10-10.4c-4.2-2.5-9-3.7-14.2-3.7c-5.2,0-9.9,1.2-14.2,3.7
					c-4.2,2.5-7.6,5.9-10,10.4c-2.5,4.5-3.7,9.6-3.7,15.4s1.2,10.9,3.7,15.4c2.5,4.5,5.8,7.9,10,10.4c4.2,2.5,9,3.7,14.2,3.7
					C419.7,396.1,424.4,394.8,428.7,392.4z"/>
			</g>
			<g>
				<path d="M533.4,380.7l-10.9,11.7v25.8h-28.9V314.9h28.9v42.9l40-42.9h32.2l-42.2,45.7l44.4,57.6h-33.9L533.4,380.7z"/>
			</g>
			<g>
				<path d="M673.7,381.2v37h-29.2v-37.5L605,314.9h30.8l24.5,41l24.5-41h28.3L673.7,381.2z"/>
			</g>
			<g>
				<path d="M739.1,413.3c-8.7-4.6-15.5-11-20.5-19.2c-5-8.2-7.5-17.4-7.5-27.6s2.5-19.4,7.5-27.6c5-8.2,11.8-14.6,20.5-19.2
					c8.7-4.6,18.5-6.9,29.4-6.9c10.9,0,20.7,2.3,29.4,6.9c8.7,4.6,15.5,11,20.5,19.2c5,8.2,7.5,17.4,7.5,27.6s-2.5,19.4-7.5,27.6
					c-5,8.2-11.8,14.6-20.5,19.2c-8.7,4.6-18.5,6.9-29.4,6.9C757.7,420.3,747.8,418,739.1,413.3z M782.7,392.4
					c4.2-2.5,7.6-5.9,10-10.4c2.5-4.5,3.7-9.6,3.7-15.4s-1.2-10.9-3.7-15.4c-2.5-4.5-5.8-7.9-10-10.4c-4.2-2.5-9-3.7-14.2-3.7
					c-5.2,0-9.9,1.2-14.2,3.7c-4.2,2.5-7.6,5.9-10,10.4c-2.5,4.5-3.7,9.6-3.7,15.4s1.2,10.9,3.7,15.4c2.5,4.5,5.8,7.9,10,10.4
					c4.2,2.5,9,3.7,14.2,3.7C773.8,396.1,778.5,394.8,782.7,392.4z"/>
			</g>
		</g>
	</g>
</g>
<g>
	<g>
		<g>
			<path class="st1" d="M405.9,602.5c-0.4,0.7-0.5,1.5-0.3,1.7c0.2,0.2-0.1,0.6-0.7,0.9c-1.9,0.7-2.9,3.8-3.1,8.7
				c-0.1,5.2-0.6,9.2-1.1,10c-0.2,0.3-3.4,0.7-7.1,1c-10.9,0.8-12.4,0.9-18.9,1.6c-8,0.8-22.9,2.9-24.3,3.4c-0.6,0.2-2,0.5-3.1,0.6
				c-1.1,0.1-3.3,0.4-4.8,0.7c-1.5,0.2-3.8,0.5-5.1,0.6c-1.3,0.1-3.3,0.4-4.4,0.6c-1.1,0.2-4.3,0.6-7.1,0.8
				c-2.8,0.2-6.2,0.9-7.5,1.5c-2.1,0.9-6.1,1.7-8.8,1.8c-1.7,0.1-0.5,3.2,1.2,3.2c0.6,0,1.6,1,2.1,2.2c0.6,1.4,1.5,2.2,2.2,2.1
				c0.8-0.1,1.2,0.4,1.2,1.2c0,0.7,0.6,1.7,1.4,2.1c0.8,0.5,1.4,1.2,1.4,1.7c0,0.5,0.2,0.8,0.4,0.8c0.2,0,3.2,0.4,6.7,1
				c9.2,1.4,17,1.9,18,1c0.7-0.5,1.2-0.5,1.9,0.1c0.7,0.6,3.9,0.7,11.5,0.4c5.8-0.2,10.8-0.4,11.2-0.4c0.4,0,2.9,0.2,5.6,0.3
				c2.7,0.2,5.1,0,5.3-0.4c0.2-0.4,0.7-0.5,1-0.3c0.4,0.2,4.9,0.4,10.2,0.4h9.6l-0.3,11.3c-0.2,6.2-0.5,11.6-0.8,12
				c-0.2,0.4-0.9,0.5-1.4,0.3c-1.4-0.5-3,0.3-2.5,1.2c0.3,0.5,0,0.4-0.6-0.1c-0.6-0.5-2.2-0.7-3.7-0.6c-8.5,1-14.9,1.7-19.8,2.1
				c-3.1,0.3-5.5,0.7-5.4,0.9c0.1,0.2-1.3,0.5-3.3,0.6c-2,0.1-4.9,0.3-6.6,0.5c-6.1,0.8-14.5,1-15.9,0.5c-1.1-0.4-2-0.2-3.1,0.7
				c-1,0.8-2.5,1.2-4,1.1c-1.8-0.1-2.7,0.3-3.6,1.4c-1.2,1.4-1.2,2.5-0.9,11.3c0.2,5.3,0.5,10.4,0.6,11.4c0.1,0.9,0.3,2.1,0.3,2.6
				c0,0.5,0.3,0.7,0.7,0.5c0.3-0.2,0.8,0.1,1,0.7s0.1,0.9-0.3,0.7c-0.4-0.2-0.7,0.3-0.8,1.1c-0.1,0.8-0.2,2.3-0.3,3.1
				c-0.1,0.8,0.1,1.7,0.4,1.9c0.3,0.2,0.4,1,0.3,1.8c-0.2,0.8-0.1,1.8,0.3,2.2c1.1,1.4,1.5,3.2,0.7,2.7c-0.6-0.4-0.6,0.3-0.3,2.5
				c0.3,1.7,0.6,3.8,0.7,4.7c0.1,0.9,0.4,3.4,0.7,5.5c0.3,2.1,0.5,4.2,0.4,4.6c-0.1,0.5,0.1,0.8,0.4,0.8c0.3,0,0.6,0.5,0.7,1.2
				c0.2,2.9,1.5,5.9,1.5,3.4c0-0.6,0.3-1.3,0.7-1.6c0.4-0.2,0.7-0.2,0.6,0.1c-0.1,0.3-0.1,1,0,1.6c0.1,0.8,0.2,0.9,0.7,0.1
				c0.4-0.7,0.7-0.4,1,0.9c0.3,1.1,0.1,2.2-0.3,2.8c-0.6,0.8-0.6,0.9,0.3,0.5c0.7-0.2,1.1-0.1,1.1,0.4c0,0.5,0.3,0.7,0.6,0.5
				c0.3-0.2,2.3,0.3,4.5,1c2.1,0.8,4.2,1.2,4.5,1c0.3-0.2,4.7-0.5,9.7-0.7c5-0.2,11-0.6,13.3-0.9c2.3-0.3,7.1-0.3,10.6,0
				s8,0.7,9.8,0.8c1.8,0.2,3.5,0.4,3.6,0.6c0.7,0.7-14.1,13.6-19,16.5c-2.9,1.7-7.6,4.9-9.3,6.3c-1,0.8-2.2,1.5-2.6,1.5
				c-0.4,0-1.5,0.6-2.4,1.2c-0.9,0.6-2.3,1.3-3.1,1.4c-0.8,0.1-1.7,0.6-2.1,1c-0.9,1-2.8,2-8.4,3.9c-2.3,0.8-5,2.1-5.9,2.8
				c-0.9,0.7-2.5,1.4-3.7,1.6c-2,0.3-6.8,2.4-9,3.7c-1.5,0.9-3.5,1.7-5.3,1.9c-0.8,0.1-2.2,0.6-3.1,1c-0.9,0.5-2.5,0.9-3.6,1.1
				c-2.1,0.2-5.1,0.6-6,0.8c-0.3,0.1-0.5,0.6-0.5,1.2s-0.4,1.2-0.9,1.4c-1,0.4-1.4,3-0.4,3c0.4,0,0.5,0.8,0.2,1.9
				c-0.2,1-0.4,2.3-0.5,2.7c0,0.5-0.6,0.8-1.4,0.8c-1.1,0-1.3,0.3-0.9,2c0.3,1.5,0.1,2.1-0.7,2.4c-1.1,0.4-1.1,0.5,0,1.3
				c1.6,1.2,1.6,1.6-0.1,2c-1.6,0.4-1.9,2.5-0.5,2.5c0.5,0,1.2,0.5,1.4,1.1c0.4,0.9,1.2,1,5.2,0.7c3.2-0.3,4.8-0.2,4.8,0.3
				c0,0.4,0.3,0.7,0.7,0.7c0.4,0,0.5-0.6,0.3-1.2c-0.3-1.1-0.3-1,0.7,0.1c1,1.2,1.2,1.2,2.4,0.1c0.8-0.7,1.5-0.9,1.7-0.5
				c0.8,1.4,12.1-0.5,12.1-2c0-0.3,0.5-0.7,1-0.7c0.6,0,0.9-0.4,0.6-1.2c-0.3-0.9-0.2-1,0.3-0.3c0.8,1.1,4.2,0.4,4.7-1
				c0.2-0.5,0.6-0.8,1-0.6c0.4,0.2,1.5-0.2,2.6-1c1.1-0.8,2.4-1.4,3.1-1.4c0.7,0,1.3-0.4,1.5-1c0.2-0.6,0.6-0.9,1-0.7
				c0.6,0.3,6-2.2,6.7-3.2c0.2-0.3,0.9-0.6,1.7-0.7c0.8-0.1,1.3-0.6,1.2-1.1c-0.1-0.5,0.1-0.7,0.3-0.6c1.1,0.7,12.6-5.9,12.6-7.2
				c0-0.3,0.3-0.4,0.7-0.2c0.4,0.2,2.8-1.8,5.4-4.5c2.6-2.7,4.6-4.4,4.4-3.8c-0.2,0.6,0.6,0.2,1.7-0.9c1.2-1.1,2.1-2.3,2.1-2.7
				c0-0.4,0.4-0.7,1-0.7c0.5,0,2.2-1.1,3.5-2.4c1.4-1.3,2.8-2.4,3.1-2.4c0.3,0,0.6-0.4,0.6-1c0-0.6,0.5-1,1-1c0.6,0,1.9-1,3-2.2
				c2.2-2.4,2.7-2.3,2.9,0.5c0.1,1.1,0.4,2.4,0.8,2.9c0.4,0.5,0.4,0.8-0.1,0.8c-0.5,0-0.8,3.5-0.8,10.8c0,5.9-0.3,12.8-0.6,15.2
				c-0.3,2.5-0.5,4.9-0.4,5.5c0.1,0.6,0.2,2,0.3,3.1c0,1.2,0.8,2.9,1.8,4c0.9,1,1.7,2.6,1.7,3.5c0,0.9,0.4,1.8,0.8,2
				c0.7,0.3,0.6,0.5-0.2,1.1c-0.7,0.5-0.8,0.7-0.2,0.7c0.5,0,0.8,0.6,0.8,1.3c0,2.4,0.7,3.6,1.7,2.8c0.7-0.6,1-0.4,1.3,0.5
				c0.4,1.2,1.2,1.4,4,0.9c0.3,0,0.5-0.8,0.5-1.6c0-2,1.3-3.9,1.8-2.7c0.2,0.5,1.2,0.8,2.3,0.8c1.4,0,2.2-0.5,2.8-1.7
				c0.4-0.9,1.4-1.9,2.1-2.1c0.7-0.2,1.3-0.7,1.3-1.1c0-0.4,0.7-0.5,1.4-0.2c1.4,0.4,1.4,0.3,1-3.5c-0.3-2.2-0.6-11.6-0.8-20.7
				c-0.2-9.8-0.6-16.9-1-17.1c-0.9-0.6,0-2.7,1.2-2.7c1.1,0,1.2-0.7,0.2-3.2c-0.9-2.3-1.4-7.7-0.7-7.7c0.6,0,10.6,10.3,11.4,11.8
				c1.2,2.2,7.8,9.4,15.7,17.3c6.7,6.7,9.9,9.3,17.1,13.8c9,5.6,19.1,10.9,20.6,10.7c0.5,0,0.8,0.1,0.8,0.4c0,0.7,3.4,2.6,6.8,3.7
				c3.1,1.1,6.2,0.6,8.1-1.2c0.8-0.7,0.7-1-0.2-1.9c-0.9-0.9-0.9-1.1-0.1-1.1c0.9,0,1.9-1.6,2.1-3.3c0-0.5,0.5-1.1,1.1-1.5
				c0.8-0.6,0.9-0.8,0.1-1.3c-1.5-0.9-0.7-3.2,1.1-3c1.8,0.2,1.9-0.4,0.3-1.6c-1.2-0.9-1.2-1,0.1-2c1.6-1.3,2.2-4.8,0.7-4.2
				c-0.6,0.2-0.9,0.1-0.7-0.2c0.2-0.3-0.6-0.8-1.9-1.1c-1.2-0.3-2.4-0.7-2.6-1c-0.2-0.3-0.9-0.7-1.7-0.8c-0.7-0.1-2.3-0.8-3.4-1.6
				c-2.7-1.8-5.2-3.1-6.7-3.3c-0.7-0.1-1.5-0.5-1.7-0.9c-0.6-0.8-3-1.8-4-1.7c-0.4,0.1-1.1-0.5-1.6-1.3c-0.4-0.8-0.9-1.3-1.1-1.1
				c-0.2,0.2-1.3-0.6-2.5-1.6c-1.2-1.1-2.4-1.8-2.6-1.7c-0.3,0.2-1.2-0.5-2-1.4c-0.9-0.9-1.8-1.5-2-1.4c-0.7,0.4-4.9-2.8-4.3-3.3
				c0.3-0.3,0.2-0.4-0.2-0.3c-1,0.3-6.6-3.2-8.6-5.3c-0.9-0.9-2.1-1.7-2.8-1.7c-0.7,0-1.5-0.6-2-1.4c-0.4-0.8-1.2-1.4-1.7-1.4
				c-0.5,0-1-0.3-1-0.7c0-0.4-0.3-0.5-0.6-0.3c-0.4,0.2-1.4-0.2-2.3-1c-1-0.8-2-1.4-2.4-1.4c-0.4,0-0.8-0.6-1-1.4
				c-0.2-0.8-0.9-1.4-1.6-1.4c-0.7,0-2-0.9-2.9-2.1c-0.9-1.1-1.9-1.9-2.1-1.7c-0.3,0.2-1.5-0.6-2.6-1.7c-1.2-1.1-2.4-2.1-2.9-2.1
				c-0.4,0-0.5-0.3-0.3-0.6c0.2-0.4-0.2-0.9-0.9-1.4c-1.9-1-1.8-2.1,0.3-2.1c0.9,0,1.7-0.3,1.7-0.7c0-0.4,0.3-0.7,0.7-0.7
				c0.4,0,0.5,0.3,0.3,0.7c-0.2,0.4,1.5,0.6,4.1,0.6c2.7,0,4.5-0.3,4.5-0.8c0-0.5,0.3-0.4,0.8,0.1c1.1,1.1,5.1,1,5.5-0.1
				c0.3-0.7,0.5-0.7,0.9-0.1c0.3,0.4,2.4,0.8,4.9,0.8c3.1,0,4.1-0.2,3.6-0.7c-1.2-1.2-0.9-1.6,0.8-1.5c1,0.1,1.5,0.6,1.5,1.3
				c-0.1,0.7,0.4,1.1,1.3,1.1c1.1,0,1.2-0.2,0.6-0.8c-0.5-0.5-0.8-1.1-0.8-1.5c0-0.4,0.2-0.5,0.4-0.2c0.2,0.3,0.8,0.1,1.4-0.3
				c0.7-0.6,0.9-0.4,0.9,1c0,1.5,0.2,1.7,1.5,1.3c0.8-0.2,1.1-0.5,0.7-0.7c-0.5-0.1-0.7-0.6-0.4-0.9c0.6-0.9,1.7-0.7,1.7,0.3
				c0,0.7,1.8,0.9,8.7,0.7c4.8-0.1,9.2-0.6,9.9-0.9c0.7-0.4,1.4-0.4,1.6,0c0.2,0.4,1.2,0.4,2.6-0.1c1.2-0.4,3-0.7,4.1-0.6
				c1,0.1,1.9-0.2,1.9-0.5c0-0.3,0.7-0.6,1.5-0.5c1.1,0,1.6-0.5,2.1-2c0.3-1.1,0.4-2.4,0.3-2.9c-0.2-0.5,0.1-0.9,0.7-0.9
				c1.2,0,1.4-1.8,0.2-2.5c-0.5-0.3-0.6-0.1-0.3,0.8c0.4,0.9,0.3,1.1-0.2,0.6c-0.4-0.4-0.5-1.2-0.3-1.8c0.5-1.3,2.2-2.1,2.2-1
				c-0.1,2.8,0.2,3.2,2.6,3.1c1.4-0.1,2.2-0.4,1.9-0.8c-0.2-0.4,0.1-0.5,0.7-0.3c0.7,0.3,1.4,0,1.8-0.8c0.9-1.7,0.1-25.3-1-28.2
				c-0.2-0.6-0.1-1.3,0.3-1.6c0.5-0.3,0.5-0.9,0.2-1.6c-0.7-1.4,0-4.6,1.1-4.6c0.5,0,0.8-0.3,0.8-0.7c0-0.4-0.5-0.6-0.9-0.5
				c-0.7,0.2-0.7-0.5,0.1-2.9c0.7-2.1,1.3-3,1.9-2.8c0.5,0.2,1,0.1,1.2-0.2c0.5-0.8-0.8-9.3-1.5-9.6c-0.3-0.1-0.5-1-0.3-1.9
				c0.2-1,0-1.7-0.5-1.7c-0.5,0-0.6-0.3-0.3-0.7c1.1-1.7-2.7-6.9-4.8-6.5c-0.4,0.1-0.8-0.6-0.9-1.4c-0.1-0.9-1-1.7-2.1-2.1
				c-1.4-0.5-2.1-1.3-2.4-2.9c-0.5-2-0.6-2.1-2.6-1.8c-1.2,0.2-12.6,0.5-25.4,0.7c-23.4,0.3-25.3,0.4-26.8,1.3
				c-0.5,0.3-0.8,0.2-0.8-0.1c0-0.4-2.6-0.6-6.1-0.6c-4,0-6,0.3-5.7,0.8c0.2,0.4,0,0.3-0.6-0.1c-0.9-0.7-1.5-0.6-3,0.2
				c-2.2,1.2-4,1.4-2.3,0.4c0.6-0.4,0.7-0.7,0.4-0.7c-0.4,0-1.1,0.3-1.7,0.6c-0.7,0.4-1.3,0.4-1.9-0.1c-0.5-0.4-2.3-0.6-4.2-0.4
				c-3.2,0.3-3.3,0.3-2.6-1c0.6-1,0.6-1.4-0.1-1.7c-0.5-0.2-0.6-0.7-0.4-1.1c0.3-0.4,0.6-4.2,0.7-8.3c0.1-4.2,0.4-8,0.6-8.5
				c0.2-0.6,1-0.8,2.4-0.6c1.1,0.2,2.2,0,2.4-0.3c0.2-0.4,0.6-0.5,0.9-0.3c0.6,0.4,12.4,1,23.8,1.4c4.2,0.1,7.9,0.4,8.2,0.6
				c0.3,0.2,2.1,0.3,4,0.2c1.9-0.1,3.8,0.1,4.3,0.5c0.6,0.4,1.2,0.4,1.9-0.2c0.6-0.5,1-0.6,1-0.2c0,0.4,2,0.6,4.5,0.5
				c2.8-0.1,5.4,0.2,6.8,0.8c1.3,0.5,2.3,0.7,2.3,0.3c0-0.7,7.6-0.4,8.9,0.4c0.5,0.3,2.8,0.6,5,0.6c2.3,0.1,4.5,0.3,4.9,0.5
				c0.4,0.2,1.4,0.3,2.4,0.2c1-0.1,2-0.2,2.3-0.3c0.3,0,0.4-0.5,0.2-1c-0.2-0.5,0.1-1.5,0.7-2c0.6-0.6,0.9-1.5,0.7-2.1
				c-0.2-0.5-0.1-1.2,0.3-1.4c0.5-0.3,0.2-1-0.6-1.9c-1.9-2-2.7-4.6-1.4-4.6c1,0,4-3.5,4-4.8c0-0.4-0.4-0.7-0.7-0.7
				c-0.4,0-0.6,0.6-0.3,1.2c0.4,1.1,0.3,1.1-0.6-0.1c-1.3-1.6-0.2-3.7,2.3-4.3c2.9-0.6,3.4-0.9,3.4-1.6c0-0.4-0.9-0.7-2.1-0.7
				c-1.1,0-2.1-0.3-2.1-0.7c0-0.4,0.3-0.7,0.7-0.7c0.4,0,1.3-0.5,2.1-1.3c1.3-1.2,1.3-1.3-0.4-1.6c-1.1-0.2-1.6-0.1-1.3,0.4
				c0.3,0.5,0.2,0.5-0.3,0.1c-0.4-0.4-0.8-1.4-0.9-2.4c-0.2-1.6-0.5-1.7-5-1.8c-2.6-0.1-10.2-0.3-16.8-0.5
				c-13-0.5-18.4-0.5-19.3,0.1c-0.3,0.2-0.5-0.1-0.5-0.5c0-0.6-0.2-0.6-0.8-0.1c-0.5,0.5-1.5,0.5-2.6,0.2c-1.9-0.5-6.6-0.4-7.6,0.3
				c-0.3,0.2-0.8,0-1-0.4c-0.3-0.5-1.6-0.6-3.7-0.3c-1.8,0.2-3.4,0.2-3.7,0c-0.7-0.7-5.2-0.7-5.2,0c0,0.3-0.4,0.3-0.8-0.1
				c-1-0.8-20.3-0.7-21.6,0.1c-1.3,0.8-1.7-1-1.5-7.7c0.1-6.4,0.1-6.7-1.6-7.8c-1.1-0.7-1.7-0.9-1.7-0.4c0,0.5-0.5,0.4-1.2-0.3
				c-1.4-1.2-3.9-2.1-6.3-2.3c-3.4-0.2-3.6-0.3-3.2-0.7c0.5-0.6-1.7-3-2.7-3C406.9,601.2,406.3,601.8,405.9,602.5L405.9,602.5z
				 M457.4,642.9c0.2,0.4,0.1,0.7-0.3,0.7c-0.4,0-0.7-0.3-0.7-0.7c0-0.4,0.1-0.7,0.3-0.7S457.2,642.5,457.4,642.9L457.4,642.9z
				 M355.5,645.4c-0.4,1-1.7,0.9-2.1-0.2c-0.1-0.3,0.4-0.7,1.1-0.7C355.4,644.4,355.7,644.7,355.5,645.4L355.5,645.4z M362.1,644.5
				c0,0.2-0.5,0.5-1,0.7c-0.6,0.2-1,0.1-1-0.3s0.5-0.7,1-0.7C361.7,644.2,362.1,644.3,362.1,644.5L362.1,644.5z M495.5,646.5
				c-0.5,0.5-0.6,0.3-0.3-0.9c0.2-0.9,0.6-1.2,0.7-0.7C496,645.3,495.8,646.1,495.5,646.5L495.5,646.5z M493,646.3
				c0.2,0.4,0,0.5-0.7,0.3c-1.2-0.4-1.4-0.9-0.4-0.9C492.3,645.6,492.7,645.9,493,646.3L493,646.3z M505.4,646.7
				c-0.2,0.2-0.8,0.3-1.3,0.1c-0.5-0.2-0.4-0.4,0.4-0.4C505.2,646.3,505.6,646.5,505.4,646.7L505.4,646.7z M515.3,682.9
				c-0.3,1.4-0.5,1.6-1.3,0.9c-0.9-0.7-0.9-0.9,0.2-1.7C515.7,680.9,515.7,680.9,515.3,682.9L515.3,682.9z M486.3,693.1
				c0.6,0.2,1.3,0,1.7-0.5c0.5-0.7,0.7-0.7,0.9,0c0.2,0.5,1.5,0.8,3.2,0.8h2.9l0.2,3.4c0.2,3.7-0.5,4.3-4.4,3.4
				c-3.5-0.8-33.1-0.6-33.1,0.1c0,0.4-2.1,0.5-5.9,0.2c-3.9-0.3-6.2-0.2-6.8,0.4c-0.7,0.5-1.1,0.6-1.4,0.1c-0.5-0.8-4.4-1-4.4-0.2
				c0,0.3-2.1,0.6-4.6,0.6c-2.5,0.1-5.9,0.2-7.5,0.3c-3.3,0.2-4.4-0.8-3.6-3.1c0.4-1,0.2-1.7-0.5-2.1c-0.8-0.6-0.9-1-0.2-2.2
				l0.8-1.5l27.7,0.1c15.2,0.1,27.8,0,28-0.2C479.7,692.3,485,692.6,486.3,693.1L486.3,693.1z M394.9,694.1c0,0.4,1,0.7,2.2,0.6
				c3.8-0.2,3.9-0.1,3.9,3.8c0,4.3-0.1,4.3-9.2,4.4c-7.2,0.1-11.3,0.7-11.3,1.7c0,0.5-0.3,0.4-0.7-0.2c-0.4-0.6-0.7-0.7-0.7-0.3
				c0,0.4-1.8,0.7-3.9,0.8c-17.2,0.6-25.4,0.4-25.4-0.6c0-0.3,0.5-0.6,1.1-0.6c0.9,0,1-0.6,0.6-4.1l-0.5-4.1l5-0.1
				c10-0.2,18.1-0.6,19.5-0.9c0.8-0.2,1.7-0.1,1.9,0.3c0.2,0.4,1.1,0.4,1.9,0.2c0.8-0.3,4.3-0.5,7.8-0.5s6.3-0.2,6.3-0.5
				c0-0.3,0.3-0.6,0.7-0.6C394.6,693.4,394.9,693.7,394.9,694.1L394.9,694.1z M514.5,699.5c0,2-1.1,2.3-1.2,0.4
				c-0.1-0.9,0.2-1.7,0.5-1.7C514.2,698.2,514.5,698.8,514.5,699.5L514.5,699.5z M349.3,703.4c-0.2,0.5-0.7,0.8-1.1,0.6
				c-0.4-0.3-0.4-0.6,0.2-1C349.7,702.2,349.8,702.2,349.3,703.4L349.3,703.4z M458.8,703.9c-1.8,1-4.3,1.1-4.2,0.2
				c0-0.4,1.3-0.8,2.7-0.8C459.5,703.2,459.8,703.3,458.8,703.9L458.8,703.9z M470.4,704.9c-0.5,0.5-2.4-0.5-2.4-1.2
				c0-0.5,0.5-0.4,1.3,0.1C470,704.3,470.5,704.8,470.4,704.9L470.4,704.9z M475.5,703.3c0,0.2-0.3,0.5-0.7,0.7
				c-0.4,0.2-0.7,0.1-0.7-0.3c0-0.4,0.3-0.7,0.7-0.7C475.3,703,475.5,703.1,475.5,703.3L475.5,703.3z M447.3,704.1
				c-0.2,0.2-0.8,0.3-1.3,0.1c-0.5-0.2-0.4-0.4,0.4-0.4C447.1,703.7,447.6,703.9,447.3,704.1L447.3,704.1z M453.3,704.4
				c0.2,0.4,0,0.5-0.7,0.3c-1.2-0.4-1.4-0.9-0.4-0.9C452.6,703.7,453.1,704,453.3,704.4L453.3,704.4z M485.8,704.4
				c0,0.4-0.6,0.7-1.4,0.7c-0.8,0-1.4-0.3-1.4-0.7c0-0.4,0.6-0.7,1.4-0.7C485.2,703.7,485.8,704,485.8,704.4L485.8,704.4z
				 M434.5,705c0,0.4-0.4,0.7-1,0.7c-0.6,0-1.2-0.3-1.4-0.7c-0.2-0.4,0.2-0.7,1-0.7C433.9,704.3,434.5,704.7,434.5,705L434.5,705z
				 M512.5,712.1c-0.7,0.7-0.8,0.6-0.4-0.4c0.2-0.7,0.6-1.1,0.8-0.8C513.2,711.1,513,711.6,512.5,712.1L512.5,712.1z M484.7,718.8
				c-0.4,0.7-1.7,0.1-1.7-0.8c0-0.3,0.4-0.4,1-0.2S484.9,718.5,484.7,718.8L484.7,718.8z M453,718.9c0.7,0.7,0.8,0.7,0.4,0
				c-0.7-1.2,2.4-1.1,4.2,0.2c0.8,0.6,1.5,0.7,1.7,0.3c0.1-0.4,2.1-0.8,4.3-0.9c3.3-0.2,4.3,0.1,5.2,1.1c1.5,1.8,7.3,2.2,8.6,0.6
				c0.5-0.7,0.9-0.8,0.9-0.3c0,0.6,2.1,0.8,7.8,0.7l7.8-0.2l-0.2,1.7c-0.1,1-0.2,2.5-0.3,3.4c-0.1,1.6-0.3,1.7-3.5,1.7
				c-1.9,0-3.6,0.2-3.8,0.5c-0.4,0.6-3.7,0-4.8-0.8c-0.9-0.8-4.5-0.1-5.2,0.9c-0.3,0.4-1,0.3-1.8-0.2c-1.1-0.7-2.1-0.7-4.6,0
				c-2.5,0.6-3.4,0.6-4.2,0c-0.7-0.6-0.9-0.6-0.9,0c0,0.6-0.4,0.6-1.4,0.1c-2-1-4.4-0.9-4,0.2c0.3,0.8-0.1,0.9-2.4,0.4
				c-3-0.7-4.8-0.6-5.4,0.4c-0.3,0.4-0.9,0.3-1.5-0.2c-0.8-0.7-1.4-0.7-2.6,0c-0.9,0.5-3.9,0.9-6.7,0.9c-2.9,0.1-5.5,0.3-5.9,0.6
				c-0.4,0.3-1.3,0.3-2,0c-0.8-0.3-1-0.2-0.7,0.3c0.3,0.5-0.1,0.5-1.2-0.1c-2-1-6.1-0.7-5.5,0.5c0.3,0.5,0.2,0.6-0.2,0.1
				c-0.4-0.4-0.5-2.4-0.4-4.5l0.3-3.8l10-0.4c9.1-0.4,10.1-0.5,11.2-1.8c1.2-1.4,1.2-1.4,1.6-0.1c0.3,0.8,0.7,1.2,1.1,1
				c0.4-0.3,0.4-0.7-0.1-1.3c-0.6-0.7-0.5-1,0.5-1.2C451.5,718,452,718,453,718.9L453,718.9z M509.3,723.7c0.3,2.6,0.2,3.8-0.2,3.5
				c-0.4-0.2-0.7-2.2-0.7-4.3C508.3,718.3,508.7,718.5,509.3,723.7L509.3,723.7z M396.9,722.2c0,0.4-0.3,0.7-0.7,0.7
				c-0.4,0-0.7-0.5-0.7-1.1s0.3-0.9,0.7-0.7C396.6,721.3,396.9,721.8,396.9,722.2L396.9,722.2z M402.6,726.1
				c0.2,1.4,0.4,3.4,0.4,4.4c0,2.2-1.1,2.5-8.8,2.4c-3.1,0-5.2,0.2-5,0.5c0.2,0.3-0.4,0.4-1.4,0.2c-1-0.2-2-0.2-2.2,0.2
				c-0.4,0.7-2.7,0.5-4.7-0.3c-0.8-0.3-1.5-0.2-1.8,0.2c-0.6,1-4.9,1.2-8.7,0.5c-2-0.4-2.9-0.3-2.9,0.2c0,0.4-0.5,0.7-1,0.7
				c-0.6,0-1-0.3-1-0.7c0-0.6-1.6-0.5-4.2,0.3c-0.8,0.2-1.3,0.1-1.3-0.3c0-0.4-0.4-0.5-0.8-0.3c-0.5,0.3-0.6,0.2-0.4,0
				c0.3-0.3,0-2-0.5-3.7c-1.9-6.3-2.7-5.9,12.2-6c22.3-0.1,29.1-0.3,29.5-1C400.8,722.2,402.2,723.7,402.6,726.1L402.6,726.1z
				 M513.3,723.3c-0.4,0.2-1.3,0.2-1.7,0c-0.5-0.2-0.1-0.3,0.8-0.3C513.4,723,513.8,723.1,513.3,723.3L513.3,723.3z M512.4,724.5
				c0,0.2-0.3,0.5-0.7,0.7c-0.4,0.2-0.7,0.1-0.7-0.3c0-0.4,0.3-0.7,0.7-0.7C512.2,724.2,512.4,724.3,512.4,724.5L512.4,724.5z
				 M353.9,726.6c0,0.6-0.3,1-0.7,1c-0.4,0-0.5-0.4-0.3-1c0.2-0.6,0.5-1,0.7-1C353.8,725.6,353.9,726,353.9,726.6L353.9,726.6z
				 M513.7,728.2c0.7,1.4,0.7,6.2,0,6.2c-0.4,0-2-3.1-2-3.8c0-0.2,0.5-0.3,1-0.3c0.6,0,1-0.3,1-0.7c0-0.4-0.4-0.6-0.8-0.5
				c-0.5,0.1-1-0.3-1.1-1C511.5,726.6,512.9,726.6,513.7,728.2L513.7,728.2z M351.4,728.7c0.6,1.6,0.1,1.8-0.8,0.3
				c-0.5-0.8-0.6-1.4-0.2-1.4C350.7,727.6,351.2,728.1,351.4,728.7L351.4,728.7z M355.1,730.1c-0.2,0.2-0.8,0.3-1.3,0.1
				c-0.5-0.2-0.4-0.4,0.4-0.4C354.9,729.7,355.3,729.9,355.1,730.1L355.1,730.1z M509.5,732.4c-0.1,0.7-0.3,1.2-0.6,1
				c-0.8-0.5-0.7-2.3,0.1-2.3C509.3,731,509.5,731.6,509.5,732.4L509.5,732.4z M352.5,732.4c0,0.4-0.1,0.7-0.3,0.7
				c-0.2,0-0.5-0.3-0.7-0.7c-0.2-0.4-0.1-0.7,0.3-0.7C352.2,731.7,352.5,732,352.5,732.4L352.5,732.4z M356.1,733.2
				c-0.5,0.5-0.8,0.6-0.8,0.1c0-0.9,0.8-1.7,1.2-1.2C356.7,732.3,356.5,732.8,356.1,733.2L356.1,733.2z M478.7,733.5
				c0.4,1.1-7.1,0.7-8.2-0.4c-0.7-0.7-0.5-0.8,1-0.6c1,0.2,1.9,0.2,1.9-0.1C473.5,731.7,478.5,732.7,478.7,733.5L478.7,733.5z
				 M469.4,733.4c0,0.6-0.3,1-0.7,1c-0.8,0-1.5-1.1-0.9-1.6C468.6,732,469.4,732.3,469.4,733.4L469.4,733.4z M484.6,733.3
				c-0.2,0.3,0.3,0.4,1.2,0.2c1.2-0.3,1.4-0.3,0.6,0.2c-0.6,0.4-1.7,0.6-2.4,0.5c-0.7-0.1-2.1-0.3-2.9-0.3c-2.7-0.1-1.6-1.1,1.2-1.1
				C483.8,732.7,484.8,732.9,484.6,733.3L484.6,733.3z M458,734.5c-0.7,0.3-1.8,0.5-2.3,0.5c-0.8,0-0.7-0.2,0.2-0.9
				c0.7-0.5,1.7-0.8,2.3-0.5C459.2,734,459.1,734.1,458,734.5L458,734.5z M463.5,733.7c0.2,0.4,0,0.7-0.6,0.7c-0.6,0-1-0.3-1-0.7
				c0-0.4,0.3-0.7,0.6-0.7C462.9,733,463.3,733.3,463.5,733.7L463.5,733.7z M466.3,733.7c0.2,0.4,0,0.7-0.6,0.7s-1-0.3-1-0.7
				c0-0.4,0.3-0.7,0.6-0.7C465.6,733,466,733.3,466.3,733.7L466.3,733.7z M446.4,734.7c-0.2,0.6-0.9,0.8-1.8,0.6
				c-1-0.3-1.2-0.5-0.5-0.9C445.6,733.5,446.8,733.6,446.4,734.7L446.4,734.7z M450.2,734.4c0,0.6-1.6,1.4-2.8,1.4
				c-0.3,0-0.4-0.4-0.2-0.9C447.6,733.9,450.2,733.5,450.2,734.4L450.2,734.4z M442.7,735.1c0,0.4-0.7,0.7-1.7,0.7
				c-1,0-1.7-0.3-1.7-0.7s0.7-0.7,1.7-0.7C442,734.4,442.7,734.7,442.7,735.1L442.7,735.1z M427.4,735.8c0.2,0.4-0.1,0.7-0.7,0.7
				c-0.6,0-1.1-0.3-1.1-0.7c0-0.4,0.3-0.7,0.7-0.7C426.7,735.1,427.1,735.4,427.4,735.8L427.4,735.8z M434.1,735.8
				c-0.4,0.7-3,0.8-3,0.1c0-0.3,0.8-0.6,1.7-0.6C433.7,735.3,434.3,735.5,434.1,735.8L434.1,735.8z M436.2,735.8
				c0.2,0.4,0.1,0.7-0.3,0.7s-0.7-0.3-0.7-0.7c0-0.4,0.1-0.7,0.3-0.7C435.7,735.1,436,735.4,436.2,735.8L436.2,735.8z M430.2,736.2
				c-0.2,0.2-0.8,0.3-1.3,0.1c-0.5-0.2-0.4-0.4,0.4-0.4C430.1,735.8,430.5,736,430.2,736.2L430.2,736.2z M402.2,737.6
				c-0.7,0.7-4,0.9-3.5,0.2c0.2-0.4,1.2-0.7,2.2-0.7C401.8,737.1,402.4,737.4,402.2,737.6L402.2,737.6z M386.3,738.6
				c-0.2,0.4-1.7,0.7-3.3,0.7c-1.5,0-4.2,0.1-5.7,0.3c-1.6,0.2-2.9,0.1-2.9-0.2c0-0.3,1.1-0.6,2.5-0.7c1.4-0.1,2.7-0.3,2.8-0.5
				C380.4,737.5,386.8,737.9,386.3,738.6L386.3,738.6z M514.2,741.8c-0.6,1.6-1.7-0.2-1.2-2c0.3-1.2,0.4-1.3,1-0.2
				C514.3,740.2,514.4,741.1,514.2,741.8L514.2,741.8z M335.8,742.5c-0.7,0.7-1.3-0.5-0.7-1.7c0.5-1.2,0.5-1.2,0.8,0
				C336.1,741.5,336,742.3,335.8,742.5L335.8,742.5z M448.2,753.6c0,0.4-0.3,0.7-0.7,0.7c-0.4,0-0.7-0.3-0.7-0.7
				c0-0.4,0.3-0.7,0.7-0.7C447.9,752.9,448.2,753.2,448.2,753.6L448.2,753.6z M460.5,753.6c0,0.4-0.3,0.7-0.7,0.7
				c-0.4,0-0.7-0.3-0.7-0.7c0-0.4,0.3-0.7,0.7-0.7C460.2,752.9,460.5,753.2,460.5,753.6L460.5,753.6z M345.9,794.4
				c0.2,0.3-0.4,0.5-1.2,0.5c-0.8,0-1.4-0.2-1.3-0.5c0.2-0.3,0.7-0.5,1.2-0.5C345.2,793.9,345.7,794.1,345.9,794.4L345.9,794.4z
				 M335,799c0.2,0.6,0.1,1.2-0.3,1.4c-0.4,0.2-0.7-0.3-0.7-1C334.1,797.7,334.4,797.6,335,799L335,799z M331.8,800.2
				c-0.2,0.5-0.4,0.4-0.4-0.4c0-0.7,0.1-1.1,0.4-0.9C332,799.1,332,799.7,331.8,800.2L331.8,800.2z M326.6,802.1
				c0,0.8-1.9,1.7-2.5,1.1c-0.6-0.6,0.5-1.8,1.6-1.8C326.1,801.4,326.6,801.7,326.6,802.1L326.6,802.1z M319.4,804.1
				c0.2,0.4,0.1,0.7-0.3,0.7s-0.7-0.3-0.7-0.7c0-0.4,0.1-0.7,0.3-0.7S319.1,803.8,319.4,804.1L319.4,804.1z"/>
			<path class="st1" d="M334.8,749.1c0,0.5,0.6,0.8,1.4,0.8c0.8,0,1.4-0.2,1.4-0.5c0-0.3-0.6-0.6-1.4-0.8
				C335.4,748.4,334.8,748.6,334.8,749.1L334.8,749.1z"/>
			<path class="st1" d="M516.1,810.4c-0.2,0.4-0.3,0.9-0.1,1c0.2,0.2,0.5-0.1,0.7-0.7C517.2,809.5,516.8,809.2,516.1,810.4
				L516.1,810.4z"/>
			<path class="st1" d="M462.7,720.1c0,0.9,0.2,1.3,0.3,0.8c0.2-0.5,0.2-1.2,0-1.7C462.8,718.8,462.7,719.2,462.7,720.1L462.7,720.1
				z"/>
		</g>
		<g>
			<path class="st1" d="M653.3,588c-1,0.2-1.4,0.6-1.2,1.2c0.2,0.5,0,1.2-0.4,1.4c-0.5,0.3-0.6,0.2-0.3-0.2c0.7-1.1-1.5-1.5-4.6-1
				c-1.9,0.3-2.9,0.9-3.1,1.8c-0.4,1.4-2.1,1.8-2.9,0.7c-0.3-0.4-0.4-0.1-0.1,0.8l0.4,1.5l-3.9-1.8c-2.9-1.3-4.2-1.6-5-1.1
				c-1.9,1.3-1.2,4.6,1.9,8.5c1.6,2,2.6,3.9,2.3,4.3c-1.3,2-0.5,7,1.8,11.3c1.2,2.3,2.1,4.4,2,4.6c-0.5,0.5-3,0.9-8.7,1.3
				c-2.8,0.2-5.6,0.6-6.2,0.8c-0.6,0.2-2.7,0.5-4.8,0.6c-2.1,0.1-5.3,0.6-7.2,0.9c-1.9,0.4-5.2,0.9-7.5,1.1
				c-2.3,0.2-5.8,0.8-7.9,1.3c-2.1,0.5-5.1,1.1-6.7,1.4c-1.6,0.2-2.8,0.7-2.6,0.9c0.1,0.3-1.1,0.5-2.8,0.5c-1.7,0-3.2,0.3-3.5,0.8
				c-0.3,0.4-1,0.7-1.7,0.6c-0.7-0.1-1.3,0.1-1.5,0.4c-0.2,0.3-1,0.4-1.7,0.2c-0.7-0.2-2.3,0.2-3.5,0.7s-2.8,1.1-3.4,1.1
				c-0.7,0-1.3,0.3-1.3,0.6c0,0.3-0.8,0.9-1.7,1.4c-1.3,0.6-1.7,0.6-1.7-0.1c0-0.5-0.4-0.5-1.1,0.3c-0.9,0.9-0.9,1.4-0.4,2.4
				c0.7,1.2,0.7,1.2,0.7,0.1c0-0.7,0.3-1.2,0.7-1.2c0.4,0,0.7,0.5,0.7,1.1s0.3,0.9,0.7,0.7c0.5-0.3,0.4,0.2,0,1.4
				c-0.4,1-0.5,2-0.3,2.2c0.2,0.2,0.4,0.1,0.4-0.2c0-0.3,0.4-0.2,1,0.3c0.7,0.6,0.8,1.1,0.3,1.8c-0.5,0.6-0.5,1,0,1.3
				c0.5,0.3,0.5,0.9-0.1,1.9c-0.5,0.8-0.9,2.3-1,3.4c-0.3,3.4,2.4,4,16.9,3.5c6.8-0.2,12.6-0.5,12.9-0.7c0.2-0.2,7.4-0.5,15.7-0.7
				c8.4-0.2,18.4-0.6,22.1-0.7c3.8-0.2,32.4-0.5,63.6-0.6c39-0.2,57.3-0.5,58.6-1c1-0.4,2.7-0.7,3.7-0.7c1.6,0,1.7-0.2,1.3-1.8
				c-0.3-1.2-0.2-1.6,0.3-1.3c0.4,0.2,0.7,0.1,0.7-0.2c0-0.8-2.3-2.9-3.3-2.9c-1.2,0-0.8-1.9,0.5-2.2c1-0.3,0.9-0.4-0.4-0.8
				c-1.2-0.4-1.4-0.7-0.9-1.7c0.5-0.9,0.4-1.3-0.4-1.6c-1.6-0.6-1.8-0.5-1.2,0.5c0.3,0.5-0.5,0.1-1.6-0.9c-1.2-0.9-2.2-2.1-2.2-2.5
				c0-0.4-0.5-0.7-1-0.5c-0.5,0.2-1.1-0.1-1.3-0.7c-0.2-0.6,0.1-1.2,1-1.5c1.5-0.5,1.6-1.1,0.5-2.2c-1.1-1.1-0.5-1.5,2.5-1.9
				c3.4-0.4,3.9-0.8,2.8-2.4c-0.5-0.9-1.6-1.3-3.1-1.3c-1.6,0-2.1,0.2-1.8,0.8c0.3,0.6,0.1,0.5-0.7-0.1c-1.2-1-1.6-1.8-0.5-1.1
				c0.4,0.2,0.7,0,0.7-0.5c0-1.1-5.7-2.9-7.6-2.3c-1,0.3-1.5,0-1.8-0.9c-0.4-1.3-1.3-1.7-3.8-1.5c-0.7,0.1-1.1-0.2-0.8-0.6
				c0.3-0.5-0.2-0.6-1.4-0.2c-1.2,0.3-1.7,0.2-1.4-0.2c0.6-0.9-5.7-1.9-6.6-1c-0.4,0.4-1.6,0.4-3.1,0.1c-1.4-0.3-2.8-0.4-3.1-0.1
				c-0.6,0.4-4.2,0.6-26.4,1.3c-6.4,0.2-11.6,0.7-12.1,1.1c-0.7,0.5-0.9,0.5-0.9-0.1c0-0.6-0.8-0.7-2.6-0.5
				c-1.4,0.2-4.8,0.4-7.6,0.6l-5,0.2l-1-2.7c-0.6-1.5-1.1-3.8-1.3-5c-0.2-1.3-0.6-2.9-1-3.6c-0.7-1.4-2-1.7-2-0.5
				c0,0.4-0.3,0.5-0.8,0.2c-0.5-0.3-0.4-0.7,0.4-1.4c1.1-0.8,1.1-1.1-0.3-4.7c-1.4-3.4-2.7-4.9-2.7-3.1c0,0.4-0.3,0.5-0.7,0.3
				c-0.4-0.3-0.3-0.8,0.3-1.5c1.3-1.3,1.3-1.8,0-4.9C658.1,587.6,657.4,587.2,653.3,588L653.3,588z M647,595c0,0.4-0.3,0.7-0.7,0.7
				c-0.4,0-0.5-0.3-0.3-0.7c0.2-0.4,0.5-0.7,0.7-0.7C646.9,594.4,647,594.7,647,595L647,595z M658.4,600.5c-0.2,0.4-0.1,0.8,0.3,1.1
				c1.7,1-0.3,1.8-2.7,1.1c-0.1,0,0.3-0.7,1-1.4C658.2,599.8,659,599.4,658.4,600.5L658.4,600.5z M661.2,607.3c-0.2,2.1,0,2.8,0.9,3
				c0.7,0.2,1.7,1.8,2.5,3.8c0.8,2.1,1.6,3.4,2.1,3.2c0.5-0.2,0.7,0.1,0.5,0.6c-0.5,1.2-4,0.3-4.1-1c0-0.5-0.2-1.2-0.3-1.5
				c-0.3-0.9-0.5-1.9-0.6-2.7c0-0.4-0.6-0.5-1.1-0.3s-0.9,0.1-0.7-0.2c0.2-0.4,0.1-0.8-0.3-1c-0.4-0.2-0.5-0.7-0.3-1.1
				c0.2-0.4,0-0.7-0.4-0.7c-0.5,0-0.6-0.6-0.3-1.5c0.3-0.8,0.5-1.9,0.6-2.4c0-0.5,0.5-0.9,1-0.9
				C661.2,604.6,661.4,605.3,661.2,607.3L661.2,607.3z M569.6,636.4c-0.2,0.2-0.8,0.3-1.3,0.1c-0.5-0.2-0.4-0.4,0.4-0.4
				C569.5,636,569.9,636.2,569.6,636.4L569.6,636.4z M638.2,638.7c0,0.3-0.6,0.6-1.4,0.6c-1.5,0.1-1.9-0.9-0.5-1.4
				C637.3,637.6,638.2,637.9,638.2,638.7L638.2,638.7z M632.9,639.1c-0.2,0.6-0.7,1-1.1,1c-0.4,0-0.3-0.4,0.2-1c0.5-0.6,0.9-1,1.1-1
				C633.2,638.1,633.1,638.5,632.9,639.1L632.9,639.1z M625,640.6c0.1,0.4-0.4,0.6-1.5,0.4c-1-0.2-1.7-0.6-1.7-0.9
				C621.8,639.3,624.7,639.8,625,640.6L625,640.6z M621.1,640.8c0,0.4-0.8,0.7-1.9,0.6l-1.9-0.1l1.7-0.5c1-0.3,1.8-0.6,1.9-0.6
				C621,640.2,621.1,640.4,621.1,640.8L621.1,640.8z M609.6,641.6c-0.8,0.8-10.4,1.8-9.7,1c0.2-0.2,2.3-0.7,4.5-1.1
				C610.3,640.7,610.5,640.7,609.6,641.6L609.6,641.6z M598.8,642.8c0.2,0.3-0.9,0.6-2.5,0.7c-1.6,0.1-3.7,0.3-4.8,0.5
				c-1.1,0.2-1.9,0.1-1.9-0.3c0-0.4,1.4-0.8,3.3-0.9c1.8-0.1,3.8-0.3,4.4-0.4C597.9,642.3,598.6,642.4,598.8,642.8L598.8,642.8z
				 M759.1,643.8c0.7,0.8,0.6,0.9-0.6,0.6c-1.7-0.4-2.5-1.6-1.2-1.6C757.8,642.8,758.6,643.3,759.1,643.8L759.1,643.8z M580.2,644.9
				c1.3,0-0.1,0.9-1.5,1c-0.8,0.1-1.4-0.3-1.4-0.9c0-0.6,0.4-0.8,1.1-0.6C579,644.7,579.8,644.9,580.2,644.9L580.2,644.9z
				 M586.5,644.9c-0.2,0.4-0.7,0.7-1,0.7c-0.4,0-0.6-0.3-0.6-0.7c0-0.4,0.5-0.7,1-0.7C586.5,644.2,586.8,644.5,586.5,644.9
				L586.5,644.9z M757.3,647.3c0.2,0.7,0.1,0.9-0.3,0.7c-0.4-0.2-0.7-0.7-0.7-1.1C756.4,646,756.9,646.2,757.3,647.3L757.3,647.3z"
				/>
			<path class="st1" d="M664.5,670.7c-0.3,0.3-3.6,0.5-7.5,0.5c-5.4,0-7,0.2-6.8,0.9c0.1,0.5-0.1,0.7-0.5,0.5
				c-0.4-0.2-0.6-0.6-0.4-0.9c0.2-0.3-0.6-0.5-1.7-0.6c-1.3-0.1-1.8,0.2-1.6,0.7c0.2,0.5-0.2,0.9-1,0.9c-0.7,0.1-1.5-0.4-1.7-0.9
				c-0.3-0.8-0.6-0.9-1.4-0.2c-0.6,0.5-1.3,0.6-1.7,0.4c-0.4-0.3-0.7-0.1-0.7,0.5c0,0.7-0.2,0.7-0.6,0c-0.4-0.7-1-0.8-2.5-0.3
				c-1.1,0.4-2.7,0.6-3.6,0.4c-0.9-0.1-2.1,0.1-2.7,0.6c-0.8,0.7-1.1,0.7-1.3,0c-0.2-0.5-1.3-0.8-2.6-0.8c-1.6,0-2.2,0.3-2,0.9
				c0.2,0.6-0.4,0.9-2.4,0.8c-1.5,0-2.6-0.3-2.6-0.7c0.1-0.4-0.2-0.6-0.6-0.6c-3.1,0.4-10.5,1.1-11.6,1.1c-0.7,0-1.8,0.3-2.3,0.8
				c-0.8,0.7-0.9,0.6-0.5-0.1c0.5-0.8,0.1-0.9-2.1-0.5c-1.5,0.3-6.8,0.6-11.9,0.8c-16.7,0.7-18.8,0.8-20.8,1.3
				c-2.6,0.6-3.1,1-3.1,2.1c0,0.5-0.5,1.1-1.1,1.3c-0.7,0.2-0.9,0.9-0.7,1.5c0.2,0.6,0,1.2-0.6,1.4c-1.2,0.5-1.3,2.3-0.1,2.3
				c1.2,0-2.4,1.9-3.8,2c-0.7,0-1.2,0.4-1.2,0.8c0,0.4,0.3,0.5,0.7,0.3c0.4-0.2,2,0.1,3.4,0.8c2.6,1.1,2.7,1.3,2.4,3.6
				c-0.2,1.3-0.6,5-0.8,8.2c-1,12.9-1.4,17.5-2.6,28c-1.1,10.2-0.8,12.6,1.8,12.9c1.3,0.2,2.2,0.8,2.6,1.9c0.3,0.9,0.9,1.6,1.1,1.5
				c0.3-0.1,1.2,0.3,2.1,0.7c0.8,0.5,1.9,0.7,2.2,0.4c0.4-0.2,0.7-0.1,0.7,0.3c0,0.4-0.4,0.9-0.9,1.1c-0.5,0.2-0.1,0.2,0.8,0
				c1-0.2,1.9-0.6,2.1-0.8c0.2-0.2,0.6-0.5,1-0.5c0.4-0.1,3.2-0.4,6.2-0.8s7.3-0.9,9.6-1.1c2.3-0.2,5.3-0.5,6.8-0.7
				c1.5-0.2,4.7-0.5,7.2-0.7c2.5-0.2,8.8-0.9,14-1.4c10-1.1,14.7-1.4,25.6-1.7c3.6-0.1,6.8-0.5,7.1-0.9c0.3-0.4,0.5,0.3,0.4,1.4
				c-0.1,1.4-0.5,2-1.4,2c-1-0.1-1.1,0.1-0.2,1.3c0.7,1,0.8,1.8,0.3,2.6c-0.4,0.8-0.4,1.4,0.1,1.7c0.4,0.3,0.5,0.8,0.1,1.2
				c-0.4,0.4-0.6,2.1-0.6,3.7c0.1,1.6-0.1,2.9-0.3,2.9c-0.2,0-0.2,1.4-0.1,3.1c0.1,1.7,0.5,3.1,0.8,3.1c0.9,0,0.7,1.9-0.3,2.3
				c-0.7,0.3-0.7,0.5,0,0.8c0.5,0.2,0.9,0.7,0.9,1.1c0,0.4-0.3,0.5-0.7,0.3c-0.4-0.2-0.7,0.5-0.7,1.7c0,1.2,0.3,1.9,0.7,1.7
				c0.8-0.5,1,3.3,0.2,4c-0.3,0.3-0.5,2.1-0.6,4c-0.3,23.4-0.6,27.1-1.6,27.1c-0.2,0-0.3-1.1-0.2-2.4c0.2-1.3,0-2.4-0.3-2.4
				c-0.8,0-0.7,6.2,0,7.4c0.4,0.7,0.4,0.8-0.2,0.5c-0.5-0.3-0.8,0.1-0.8,1.1c0,3.1-6.9,11-9,10.3c-0.3-0.1-0.5,0.1-0.5,0.4
				c0,0.3-0.7,0.9-1.7,1.4c-1,0.4-1.7,1.1-1.7,1.5c0,0.9,0.8,0.8,3.2-0.1c1.1-0.4,2.3-0.9,2.8-1c0.5-0.1,2.2-1.3,3.9-2.6
				c2.9-2.3,4.1-2.6,3.3-0.7c-0.2,0.5-0.9,1-1.6,1c-0.7,0-1.4,0.6-1.6,1.3c-0.4,1.7-12,7.3-16.2,7.9c-7.4,1.1-11.5,2.9-11.8,5.2
				c-0.1,0.5-0.4,1.2-0.6,1.7c-0.3,0.5,0,1,0.6,1.2c1,0.4,0.9,0.6-0.4,1.7c-0.8,0.7-1.8,2.5-2.2,3.8c-0.5,1.9-0.9,2.3-1.5,1.8
				c-1-1-1.8-1-1.8,0c0,0.4,0.4,0.5,0.7,0.2c0.5-0.3,0.7,0.4,0.4,2.4c-0.2,1.6-0.2,2.7,0,2.5c0.2-0.2,0.9,0.2,1.5,0.9
				c0.7,0.9,1.8,1.2,3.1,1c1.1-0.2,3.2-0.4,4.6-0.6c1.4-0.2,2.9-0.5,3.3-0.7c0.4-0.2,1.2-0.1,1.9,0.3c0.7,0.4,0.9,0.7,0.5,0.7
				c-1.1,0.1,2.7,2,3.9,2.1c0.6,0,1.3-0.5,1.5-1c0.2-0.6,0.2-0.9-0.1-0.7c-0.3,0.2-0.9,0-1.5-0.4c-0.9-0.6-0.9-0.6,0-0.4
				c0.6,0.2,1.6,0,2.2-0.3c0.9-0.5,1.2-0.4,1.2,0.4c0,0.8,0.6,0.9,2.5,0.6c3.8-0.5,13-3.7,13.9-4.8c0.4-0.5,1.6-0.9,2.7-0.9
				c1.1,0,2-0.3,2-0.7c0-0.4,0.7-0.7,1.4-0.7c2.1,0,5.4-1.9,5.5-3.3c0-0.7,0.2-0.8,0.4-0.4c0.9,2.1,7.4-2.9,8-6.2
				c1.3-6.7,1.7-10.8,1.3-17.9c-0.6-14.4-0.7-18.4-0.3-19.1c0.2-0.4,0.4-1.7,0.5-3c0.1-1.3,0.3-5,0.5-8.4c0.3-5.5,0.5-7.5,1.6-14.2
				c0.2-1.3,0.5-3,0.6-3.8c0.1-0.8-0.3-1.9-0.9-2.6c-0.8-0.8-0.8-1.2-0.2-1c0.6,0.2,1-0.7,1.1-2.7c0.2-1.9,0-2.8-0.5-2.5
				c-0.4,0.3-0.4-0.1,0.1-1c0.5-0.9,0.6-2.9,0.3-5.4c-0.3-2.7-0.6-3.5-0.9-2.6c-0.3,0.7-0.5-0.6-0.4-2.9c0-2.3,0.2-4.3,0.4-4.3
				c0.2,0,0.4-0.7,0.4-1.6c0-0.9-0.2-1.5-0.5-1.4c-0.3,0.2-0.7,0-0.9-0.4c-0.5-0.8-0.6-0.8,7.8-1.2c22.8-1.2,71.8-1.1,79.4,0.2
				c2.1,0.3,2.7,0.2,3.6-1.2c0.9-1.3,1.2-1.4,1.8-0.6c0.6,0.9,0.7,0.9,0.7,0c0-0.6,0.6-1.4,1.4-1.9c1-0.6,1.4-1.6,1.4-3.6
				c0-1.5-0.3-2.7-0.7-2.7c-0.4,0-0.7-0.5-0.7-1s0.3-0.9,0.7-0.6c0.4,0.2,0.7,0.1,0.7-0.3c0-0.4-0.3-0.7-0.7-0.7
				c-0.4,0-0.7-0.5-0.7-1.2c0-1,0.1-1,0.6-0.2c1.2,1.8,1.9-0.2,2.3-6.3c0-0.7,0.4-1.2,0.7-1.2c0.7,0,0.2-9.8-0.7-11.9
				c-0.4-0.9-0.3-1.2,0.3-0.8c0.5,0.3,0.8,0.2,0.8-0.2c0-0.4-0.3-0.9-0.7-1.1c-0.4-0.2-0.5-2.9-0.4-6c0.2-3.1,0-7.4-0.3-9.5
				c-0.3-2.1-0.3-4.3,0-4.8c0.6-0.9-0.3-2.8-2.2-4.7c-1.3-1.3-1.4-1.2-3.3,0.7c-2.2,2.2-3.5,2.6-3.5,1c0-0.6-0.6-1-1.3-1
				c-0.7,0-1.9-0.6-2.7-1.3c-1.6-1.5-6.3-2-6.3-0.7c0,1-1,0.8-2.4-0.5c-0.8-0.7-1.7-1.2-2.2-1c-0.4,0.1-1.4-0.1-2.1-0.4
				c-0.8-0.4-1.7-0.4-2.4,0c-0.8,0.5-1.4,0.3-1.9-0.6c-0.7-1.1-0.8-1.1-2.1,0.4c-1.3,1.5-1.5,1.5-2.6,0.5c-1.4-1.2-3.2-1.5-3.8-0.5
				c-0.4,0.7-10.6,0.7-10.6,0c0-0.3-0.6-0.4-1.3-0.2c-0.8,0.2-2.2,0-3.4-0.4c-1.3-0.4-2.2-0.5-2.5-0.1c-0.8,1.3-3.7,0.7-4.4-0.8
				l-0.6-1.6l0,1.5c0,1.2-0.4,1.5-2.1,1.5c-1.2,0-1.9-0.3-1.7-0.7c0.2-0.4,0-0.9-0.5-1.2c-1.2-0.8-3.4-1-3-0.3c0.2,0.3,0,1-0.3,1.5
				c-0.6,0.8-0.7,0.8-1.3-0.2c-0.6-1-0.9-1-2.5-0.2c-1.2,0.6-2,0.7-2.3,0.2c-0.2-0.4-0.7-0.8-1-0.8c-0.4-0.1-0.5-0.3-0.4-0.6
				c0.1-0.3-0.3-0.5-0.8-0.5c-0.6,0-0.9,0.4-0.8,0.8c0.1,0.5-0.7,0.9-2,0.9c-1.4,0-2.2-0.3-2.2-0.8c0-0.5-0.3-0.9-0.7-0.9
				c-0.4,0-0.6,0.4-0.5,0.8c0.2,1.2-2.3,1.5-3,0.4c-0.4-0.7-0.6-0.7-0.6-0.1c0,0.5-0.8,0.8-1.7,0.8c-1.2,0-1.7-0.4-1.7-1.2
				c0-1-0.7-1.2-4.1-1.2c-2.9,0-4,0.2-3.8,0.8c0.2,0.4-0.3,1-1,1.2c-0.7,0.2-1.2,0.1-1-0.2c0.2-0.3-0.1-0.9-0.7-1.4
				c-0.8-0.6-1.1-0.5-1.7,0.6c-0.4,0.8-1.1,1.4-1.5,1.4c-0.5,0-0.5-0.3,0.1-1C666.2,671,665.4,669.8,664.5,670.7L664.5,670.7z
				 M654.9,672.2c0.2,0.4,0.1,0.7-0.3,0.7c-0.4,0-0.7-0.3-0.7-0.7c0-0.4,0.1-0.7,0.3-0.7S654.6,671.8,654.9,672.2L654.9,672.2z
				 M593.7,688.9c0,0.3-0.9,0.4-2,0.1c-1.2-0.3-2.1-0.2-2.1,0.3c0,0.6-2.3,1.3-6.1,1.7c-0.6,0.1-1-0.7-1.2-2l-0.2-2.1l4.5-0.1
				c2.5,0,4.7-0.2,4.9-0.5C592,685.8,593.7,687.9,593.7,688.9L593.7,688.9z M603.8,686.8c0.4,0.4-2.4,0.7-5.1,0.6
				c-0.5,0-0.8,0.3-0.8,0.6c0,1.1-3.6,0.3-3.8-0.8c-0.1-0.9,0.7-1,4.5-1C601.2,686.4,603.5,686.6,603.8,686.8L603.8,686.8z
				 M692.8,689c4,0.2,9.3,0.5,12,0.7c2.6,0.1,4.9,0.3,5.1,0.4c0.2,0.1,1.3,0.1,2.6,0c1.7-0.1,2.2,0.1,2,0.8
				c-0.2,0.5-0.8,0.8-1.3,0.7c-1.1-0.3-35.3-0.1-46.8,0.3c-9.8,0.3-21,0.5-24.1,0.4c-1.9-0.1-2.2-0.3-1.9-1.2c0.4-1.1,0.4-1.1-0.5,0
				c-1,1.2-6.6,2.5-6.6,1.4c0-0.3,0.5-1.2,1-1.8c0.8-1,1.2-1.1,2.3-0.5c0.9,0.5,1.5,0.5,1.8,0c0.6-1,12.2-0.8,13.3,0.2
				c0.5,0.5,0.7,0.5,0.5,0.1c-0.7-1.3,1.7-1.5,15.6-1.6c7.1,0,13-0.2,13.1-0.3c0.1-0.1,1.2-0.1,2.4,0
				C684.6,688.5,688.8,688.8,692.8,689L692.8,689z M632.7,691.1c0,1.7-0.2,1.8-3.3,1.8c-1.8,0-4.7,0.2-6.5,0.4
				c-2.3,0.3-3.6,0.1-4.4-0.6c-1-0.8-1.1-0.8-0.5,0.1c0.5,0.9,0.5,0.9-0.5,0.1c-0.7-0.5-1.1-1.2-1.1-1.5c0-0.6,6.3-0.4,7.6,0.3
				c0.5,0.3,0.3,0-0.4-0.6c-1.3-1-1.2-1.1,0.8-1.1c1.2,0,2.2,0.3,2.2,0.7c0,0.4,0.8,0.7,1.9,0.7c1.4,0,1.6-0.2,0.9-0.6
				c-0.7-0.5-0.5-0.7,1-0.9c1.1-0.2,2.1-0.4,2.2-0.4C632.6,689.4,632.7,690.1,632.7,691.1L632.7,691.1z M614.4,691.2
				c-0.5,0.2-0.8,0.7-0.8,1.2c0,0.4-0.6,0.8-1.3,0.8c-1,0-1.2-0.3-0.7-1.2c0.4-0.7,1.3-1.2,2.2-1.2
				C614.6,690.8,614.9,691,614.4,691.2L614.4,691.2z M727.8,692.2c-0.5,0.5-0.8,0.6-0.8,0.1c0-0.9,0.8-1.7,1.2-1.2
				C728.4,691.3,728.2,691.8,727.8,692.2L727.8,692.2z M608.8,692.4c0,0.6-0.1,1-0.3,1s-0.4-0.4-0.7-1c-0.2-0.6-0.1-1,0.3-1
				C608.5,691.4,608.8,691.8,608.8,692.4L608.8,692.4z M725.1,691.9c-0.4,0.2-1.3,0.2-1.7,0c-0.5-0.2-0.1-0.3,0.8-0.3
				C725.2,691.5,725.6,691.7,725.1,691.9L725.1,691.9z M739.3,692c0,0.3-0.4,0.6-1,0.6c-0.6,0-0.9-0.2-0.7-0.6
				c0.2-0.3,0.6-0.6,1-0.6C739.1,691.4,739.3,691.6,739.3,692L739.3,692z M602.6,693.4c0.8,0.8,1.1,1.3,0.8,1.3
				c-0.3,0-0.9-0.4-1.4-0.8c-0.7-0.6-0.8-0.4-0.7,0.9c0.2,1.7,0.3,1.7,4.6,1.4c2.4-0.1,7.5-0.3,11.1-0.4c5.2-0.1,6.6-0.3,6.3-1
				c-0.2-0.5,0-0.7,0.3-0.5c1.2,0.8,8.9,0.5,10-0.4c0.7-0.5,1-0.6,1-0.1c0,0.5,8.1,0.7,28.9,0.7c33.1,0,51.4,0.5,53.2,1.4
				c0.8,0.4,1.3,0.4,1.5-0.2c0.2-0.6,0.6-0.7,1.3-0.1c0.5,0.4,2.6,0.7,4.6,0.7c2,0,3.6,0.1,3.6,0.3c0,0.3,6.5,0.8,12.6,1l3.4,0.1
				l-0.1,6.2c-0.1,6.1-1.6,11.1-3.1,10.2c-0.4-0.2-0.7-0.1-1,0.3c-0.2,0.4-1.9,0.5-3.8,0.4c-1.9-0.1-3.4,0-3.4,0.4
				c0,0.3-1,0.5-2.2,0.3c-1.2-0.2-4.8-0.1-8,0.3c-3.2,0.3-5.9,0.3-6,0c-0.1-0.3-0.8-0.2-1.5,0.1c-1.1,0.6-11.1,0.5-19.7-0.2
				c-2.1-0.2-3.6,0-3.6,0.4c0,0.4-0.3,0.4-0.8,0.1c-0.8-0.6-7.6-0.6-12.8,0c-1.3,0.1-3.1,0-4-0.4c-1.1-0.5-1.8-0.5-2.3,0.1
				c-0.6,0.6-1,0.6-1.7,0c-0.7-0.5-1.2-0.5-2.1,0.2c-1,0.8-1.1,0.8-0.6,0c0.4-0.7,0.3-0.8-0.4-0.4c-1.5,0.9-6.4,1.2-10,0.7
				c-1.2-0.2-2.2-0.1-2.2,0.3c0,0.4-0.5,0.7-1.1,0.7s-0.9-0.3-0.7-0.7c0.2-0.4-0.5-0.4-1.8,0c-1.3,0.4-2.6,0.4-3.4,0
				c-0.7-0.4-1.4-0.4-1.6,0c-0.2,0.4-1,0.5-1.8,0.3c-0.8-0.2-1.4,0-1.4,0.4c0,0.6-0.4,0.6-1.4,0c-0.8-0.4-2-0.5-2.6-0.3
				c-1.2,0.5-11.8,1.2-17.5,1.2c-4.6,0-25.6,2.1-25.6,2.6c0,0.6-8,0.5-8.6-0.1c-0.8-0.8-1-3.3-0.3-3.3c0.5,0,0.6-2.8,0.3-8.7
				c-0.2-4.8-0.4-9.2-0.4-9.9c0-0.7-0.5-1.3-1.1-1.5c-0.6-0.2-0.9-0.7-0.6-1.1c0.2-0.4,0.7-0.5,1.2-0.2c0.5,0.3,0.6,0.1,0.4-0.6
				c-0.3-0.7,0.1-1.1,1.4-1.1c1-0.1,2.7-0.2,3.7-0.3c2.1-0.3,2.2-0.2,1.2,1.7c-0.9,1.7,0.5,2.3,4.5,1.7c2.3-0.3,3.1-0.7,3.1-1.7
				c0-0.7-0.4-1.4-0.8-1.6c-0.6-0.3-0.6-0.5,0.2-1.1C601.1,692,601.1,692,602.6,693.4L602.6,693.4z M596.8,693.4
				c0.2,0.4,0.3,1,0,1.4c-0.6,0.9-2.4,0.1-2.4-1C594.4,692.6,596.2,692.4,596.8,693.4L596.8,693.4z M599.9,695.5
				c0,0.4-0.4,0.7-0.7,0.7c-0.4,0-0.5-0.3-0.3-0.7c0.2-0.4,0.6-0.7,0.7-0.7C599.8,694.8,599.9,695.1,599.9,695.5L599.9,695.5z
				 M578.6,699.1c0.1,1.4-0.1,2.5-0.5,2.5c-0.4,0-0.7-0.7-0.7-1.6c0-0.9-0.2-2.1-0.5-2.8c-0.3-0.8-0.2-1.1,0.5-0.9
				C577.9,696.5,578.5,697.7,578.6,699.1L578.6,699.1z M585.8,698.2c0.2,0.4,0.2,0.8-0.2,1c-0.3,0.2-0.8-0.1-1-0.7
				C584.2,697.5,585.2,697.1,585.8,698.2L585.8,698.2z M747.5,700.7c0.4,1,0.6,2.8,0.6,3.9c-0.1,1.2,0.1,2.8,0.4,3.6
				c0.3,0.9,0.2,1.5-0.2,1.5c-0.4,0-0.8,0.7-0.9,1.6c-0.1,0.9-0.8,1.7-1.6,1.8c-1.1,0.2-1.2,0.1-0.5-0.8c1-1.2,1.3-7.1,0.6-10.9
				C745.3,698.5,746.4,697.9,747.5,700.7L747.5,700.7z M751.8,704c0.2,0.6,0.1,1-0.2,1s-0.8-0.5-1-1c-0.2-0.6-0.1-1,0.2-1
				C751.2,703,751.6,703.4,751.8,704L751.8,704z M575.1,712.9c0,0.5-0.3,0.8-0.6,0.6c-0.4-0.2-0.4-0.6-0.2-1
				C574.8,711.7,575.1,711.8,575.1,712.9L575.1,712.9z M673,740.9c0,0.5-0.3,1.1-0.6,1.3c-0.3,0.2-0.6-0.4-0.5-1.3
				C672,739.3,673,739.2,673,740.9L673,740.9z M649.8,815.3c-0.5,0.5-0.7,0.4-0.7-0.6c0-1.8,0.9-2.8,1.2-1.3
				C650.4,814,650.2,814.9,649.8,815.3L649.8,815.3z M665.2,832.8c-0.1,0.2-0.4,1-0.7,1.7c-0.5,1.3-0.5,1.3-1.4,0
				c-0.5-0.7-0.8-1.5-0.7-1.8C662.8,832.2,665.5,832.2,665.2,832.8L665.2,832.8z M661.7,834.6c0.6,0.2,1.1,1.1,1.1,1.8
				c0,0.8-0.1,1.3-0.3,1.1c-0.2-0.2-0.3-0.5-0.2-0.8c0.1-0.3-0.5-0.9-1.3-1.5C659.6,834.2,659.9,833.9,661.7,834.6L661.7,834.6z
				 M659.6,835.4c0.2,0.3-0.2,1.1-1,1.7c-1.6,1.4-2.4,0.3-0.9-1.2C658.9,834.7,659.1,834.7,659.6,835.4L659.6,835.4z M651.8,839
				c0,0.4-0.3,0.7-0.7,0.7c-0.4,0-0.7-0.3-0.7-0.7c0-0.4,0.3-0.7,0.7-0.7C651.6,838.3,651.8,838.6,651.8,839L651.8,839z"/>
			<path class="st1" d="M703.1,750.6c0,0.8,0.2,1,0.4,0.4c0.2-0.5,0.2-1.1-0.1-1.3C703.3,749.4,703.1,749.8,703.1,750.6L703.1,750.6
				z"/>
			<path class="st1" d="M702,753.5c0.3,0.7,0.2,0.9,0,0.7s-0.9-0.2-1.4,0.3c-0.7,0.6-1,0.5-1.3-0.4c-0.2-0.6-0.9-1.1-1.4-1.1
				c-1.2,0-1.2-0.3,0.1,5.1c0.6,2.5,0.9,5.2,0.6,6.1c-0.3,1,0,2,0.8,2.8c0.7,0.7,1.2,2.1,1.3,3c0.1,1,0.3,2.4,0.6,3.2
				c2.1,5.2,2.8,6.5,3.7,6.5c0.6,0,0.7,0.2,0.3,0.4c-0.9,0.4,0.1,4.1,1.6,5.6c0.5,0.5,0.9,1.4,0.9,1.9c0,0.5,0.3,1,0.6,1
				c0.3,0,1.9,2.6,3.5,5.9c1.6,3.3,3.5,6.1,4.2,6.5c0.7,0.4,1.7,1.6,2.3,2.7c1.2,2.3,7.7,8.8,8.8,8.8c0.4,0,1.5,0.8,2.4,1.8
				c1.7,1.8,6.2,4.4,7.7,4.4c1.6,0,6.1,2.5,5.5,3c-0.3,0.3-0.2,0.4,0.2,0.2c0.4-0.2,2.4,0.1,4.4,0.6c5.5,1.4,8.1,1.6,9,0.5
				c0.4-0.5,2.1-1,3.8-0.9c2.1,0,3.1-0.3,3.4-1c0.2-0.6,0.8-1,1.4-1c1.4,0,3.1-4.2,2.1-5.3c-0.5-0.6,0.1-1.6,2.2-3.6
				c2.3-2.3,2.7-3,2-3.8c-0.6-0.8-0.5-1,0.6-1c0.8,0,1.6-0.3,1.8-0.7c0.2-0.4,0-0.7-0.6-0.7c-0.6,0-1-0.6-1-1.3c0-1.5-1-1.9-6.8-2.1
				c-2.4-0.1-5-0.6-5.8-1.1c-0.8-0.5-3.3-0.9-5.6-0.9c-7.3-0.1-12-2.1-17.8-7.7c-1.6-1.5-3.2-2.6-3.6-2.3c-0.4,0.3-0.7-0.1-0.7-1
				c0-0.8-0.5-1.6-1-1.8c-0.6-0.2-1-0.8-1-1.4c0-0.5-0.3-0.8-0.7-0.6c-0.4,0.2-1-0.2-1.4-1c-0.4-0.8-1.2-1.4-1.8-1.4
				c-0.6,0-1-0.7-1-1.7c0-0.9-0.2-1.7-0.5-1.7c-0.3,0-1.1-1-1.8-2.2c-1.7-2.9-8.3-12.9-9.4-14.3c-0.5-0.5-1.4-1.3-2.1-1.5
				c-0.9-0.3-1.1-0.9-0.8-1.9c0.2-0.8,0.1-1.4-0.3-1.4c-0.4,0-0.7-0.4-0.8-0.8c-0.1-1.2-4-4.1-5.9-4.3
				C702,752.4,701.7,752.6,702,753.5L702,753.5z"/>
			<path class="st1" d="M612.7,756c-1,1.3-1.9,2.8-1.9,3.3c0,1.7-0.8,3.2-1.4,2.8c-0.3-0.2-0.8,0.4-1,1.4c-0.3,1-0.7,1.6-1,1.3
				c-0.3-0.2-0.6,0.4-0.6,1.4c0,1-0.5,2-1,2.2c-0.6,0.2-0.9,0.6-0.7,0.9c0.2,0.3-0.2,0.7-1,1c-0.8,0.2-1.4,1-1.4,1.8
				c0,2-1.3,4.1-2.2,3.6c-0.5-0.3-0.6-0.2-0.3,0.3c0.3,0.4-1,1.9-3.1,3.5c-2,1.5-4,3.4-4.5,4.1c-0.5,0.8-1.3,1.4-1.9,1.4
				c-0.6,0-1,0.3-1,0.7c0,0.4-0.4,0.7-1,0.7c-0.6,0-1,0.3-1,0.7c0,0.4-0.8,1.1-2,1.7c-1.1,0.5-3,2-4.2,3.3c-1.2,1.2-2,1.8-1.7,1.3
				c0.5-0.9,0.4-0.9-0.7,0c-0.7,0.5-1.9,1.6-2.5,2.2c-0.7,0.7-1.7,1.5-2.3,1.8c-1,0.6-1,0.8-0.2,1.9c0.9,1.2,0.9,1.2-0.2,0.4
				c-0.8-0.6-1.3-0.7-1.6-0.2c-0.2,0.4-0.7,0.6-1.1,0.4c-0.4-0.2-0.7,0.1-0.7,0.7c0,0.6-0.9,1.5-2,2.1c-1.1,0.6-2.4,1.6-2.9,2.3
				c-0.5,0.7-2.8,2.3-5.1,3.4c-2.3,1.2-4.2,2.4-4.2,2.7c0,1,2.7,2.2,3.8,1.8c0.5-0.2,1,0,1,0.5c0,1,2.6,2.7,3.4,2.2
				c0.3-0.2,0.7,0.3,0.9,1.1c0.3,1.2,0.7,1.4,2.4,1c1.6-0.3,2.3-0.1,3,1.1c0.8,1.3,1.7,1.5,5.6,1.6c6.7,0.2,12.1-2.7,19.6-10.2
				c6.1-6.2,5.9-5.9,10.6-12.1c3.6-4.7,7.7-11.2,7.7-12.2c0-0.3,0.5-1,1-1.4c0.6-0.5,1-1.3,1-1.8c0-0.5,0.7-2.4,1.5-4.2
				c0.8-1.8,1.8-4.3,2.1-5.6c2.7-10.4,2.7-12.6,0-15.9c-1.8-2.2-2.5-2-4,1.3c-0.6,1.3-1.4,2.3-1.8,2.3c-0.4,0-0.2-0.5,0.3-1.1
				c0.5-0.6,0.8-1.7,0.7-2.4c-0.1-0.7,0.1-1.8,0.6-2.3c0.6-0.8,0.6-1-0.1-1C615,753.6,613.7,754.7,612.7,756L612.7,756z
				 M610.9,785.5c-0.6,1-0.7,1.1-0.8,0.2c0-1.2,0.6-2.2,1.1-1.7C611.5,784.1,611.3,784.8,610.9,785.5L610.9,785.5z M590.5,788.8
				c-0.2,0.6-0.5,1-0.7,1c-0.1,0-0.3-0.5-0.3-1s0.3-1,0.7-1C590.6,787.7,590.8,788.2,590.5,788.8L590.5,788.8z M607.4,790.8
				c-1,1.2-2,1.4-2,0.3c0-0.4,0.3-0.5,0.6-0.3c0.3,0.2,0.8-0.1,1-0.7c0.2-0.7,0.6-1,0.8-0.7C608.1,789.5,607.9,790.2,607.4,790.8
				L607.4,790.8z M603.3,795.6c-1.3,1.3-2.7,2.4-3.1,2.4c-0.4,0-0.1-0.5,0.6-1c0.7-0.5,1.1-1,0.8-1c-0.3,0,0.1-0.9,1-2.1
				c1.1-1.5,1.7-1.9,2.2-1.4C605.4,793,604.9,793.9,603.3,795.6L603.3,795.6z M598.5,799.4c-0.5,0.3-0.7,0.9-0.3,1.4
				c0.4,0.6,0.3,0.7-0.2,0.4c-1-0.6-1-2,0-3c0.7-0.7,0.9-0.7,1.1-0.1C599.3,798.5,599,799.1,598.5,799.4L598.5,799.4z M596.2,803.3
				c-0.5,1.2-0.5,1.2-1.2,0c-0.8-1.5-0.1-3,1-2C596.3,801.7,596.4,802.6,596.2,803.3L596.2,803.3z M591.2,805.9
				c-0.2,0.6-0.5,0.9-0.7,0.7c-0.2-0.2-0.1-0.7,0.1-1C591.3,804.4,591.7,804.6,591.2,805.9L591.2,805.9z M586.2,809.6
				c0,0.4-0.4,0.7-0.7,0.7c-0.4,0-0.5-0.3-0.3-0.7c0.2-0.4,0.6-0.7,0.7-0.7C586.1,808.9,586.2,809.2,586.2,809.6L586.2,809.6z
				 M585.2,811.6c0.2,0.4,0.1,0.7-0.3,0.7c-0.4,0-0.7-0.3-0.7-0.7c0-0.4,0.1-0.7,0.3-0.7C584.6,810.9,584.9,811.2,585.2,811.6
				L585.2,811.6z"/>
			<path class="st1" d="M648.5,797c0,0.8,0.2,1,0.4,0.4c0.2-0.5,0.2-1.1-0.1-1.3C648.6,795.9,648.4,796.3,648.5,797L648.5,797z"/>
			<path class="st1" d="M630.6,823c-1.3,0.5-1.8,0.9-1.2,0.9c0.7,0,1,0.4,0.8,0.8c-0.7,1.2,0.3,0.7,1.8-0.8
				C633.9,822.1,633.6,821.9,630.6,823L630.6,823z"/>
			<path class="st1" d="M588.5,695.9c-0.6,0.7-0.5,0.9,0.5,1.2c1.9,0.5,2.9-0.4,1.5-1.3C589.6,695.2,589,695.2,588.5,695.9
				L588.5,695.9z"/>
		</g>
	</g>
	<g>
		<g>
			<g>
				<path d="M465.3,689.9h-19.6v-14.3h57.1v14.3h-19.5v49.5h-18V689.9z"/>
			</g>
			<g>
				<path d="M570.3,675.6v63.8h-18v-24.9h-24.6v24.9h-18v-63.8h18v24h24.6v-24H570.3z"/>
			</g>
			<g>
				<path d="M634.3,725.4v13.9h-51.2v-63.8h50v13.9h-32.2v10.8h28.3v13.5h-28.3v11.7H634.3z"/>
			</g>
		</g>
		<g>
			<g>
				<path d="M285.7,804.4H254v-23.2h92.5v23.2H315v80.1h-29.2V804.4z"/>
			</g>
			<g>
				<path d="M385.1,879.6c-8.7-4.6-15.5-11-20.5-19.2c-5-8.2-7.5-17.4-7.5-27.6s2.5-19.4,7.5-27.6c5-8.2,11.8-14.6,20.5-19.2
					c8.7-4.6,18.5-6.9,29.4-6.9c10.9,0,20.7,2.3,29.4,6.9c8.7,4.6,15.5,11,20.5,19.2c5,8.2,7.5,17.4,7.5,27.6s-2.5,19.4-7.5,27.6
					c-5,8.2-11.8,14.6-20.5,19.2s-18.5,6.9-29.4,6.9C403.6,886.6,393.8,884.3,385.1,879.6z M428.7,858.7c4.2-2.5,7.6-5.9,10-10.4
					c2.5-4.5,3.7-9.6,3.7-15.4s-1.2-10.9-3.7-15.4c-2.5-4.5-5.8-7.9-10-10.4c-4.2-2.5-9-3.7-14.2-3.7c-5.2,0-9.9,1.2-14.2,3.7
					c-4.2,2.5-7.6,5.9-10,10.4c-2.5,4.5-3.7,9.6-3.7,15.4s1.2,10.9,3.7,15.4c2.5,4.5,5.8,7.9,10,10.4c4.2,2.5,9,3.7,14.2,3.7
					C419.7,862.4,424.4,861.2,428.7,858.7z"/>
			</g>
			<g>
				<path d="M533.4,847l-10.9,11.7v25.8h-28.9V781.2h28.9v42.9l40-42.9h32.2L552.4,827l44.4,57.6h-33.9L533.4,847z"/>
			</g>
			<g>
				<path d="M673.7,847.5v37h-29.2V847L605,781.2h30.8l24.5,41l24.5-41h28.3L673.7,847.5z"/>
			</g>
			<g>
				<path d="M739.1,879.6c-8.7-4.6-15.5-11-20.5-19.2c-5-8.2-7.5-17.4-7.5-27.6s2.5-19.4,7.5-27.6c5-8.2,11.8-14.6,20.5-19.2
					c8.7-4.6,18.5-6.9,29.4-6.9c10.9,0,20.7,2.3,29.4,6.9c8.7,4.6,15.5,11,20.5,19.2c5,8.2,7.5,17.4,7.5,27.6s-2.5,19.4-7.5,27.6
					c-5,8.2-11.8,14.6-20.5,19.2c-8.7,4.6-18.5,6.9-29.4,6.9C757.7,886.6,747.8,884.3,739.1,879.6z M782.7,858.7
					c4.2-2.5,7.6-5.9,10-10.4c2.5-4.5,3.7-9.6,3.7-15.4s-1.2-10.9-3.7-15.4c-2.5-4.5-5.8-7.9-10-10.4c-4.2-2.5-9-3.7-14.2-3.7
					c-5.2,0-9.9,1.2-14.2,3.7c-4.2,2.5-7.6,5.9-10,10.4c-2.5,4.5-3.7,9.6-3.7,15.4s1.2,10.9,3.7,15.4c2.5,4.5,5.8,7.9,10,10.4
					c4.2,2.5,9,3.7,14.2,3.7C773.8,862.4,778.5,861.2,782.7,858.7z"/>
			</g>
		</g>
	</g>
</g>
</svg>
